ISO-10303-21;
HEADER;
FILE_DESCRIPTION(('FreeCAD Model'),'2;1');
FILE_NAME('Open CASCADE Shape Model','2026-06-13T17:41:35',(''),(''),
  'Open CASCADE STEP processor 7.8','FreeCAD','Unknown');
FILE_SCHEMA(('AUTOMOTIVE_DESIGN { 1 0 10303 214 1 1 1 1 }'));
ENDSEC;
DATA;
#1 = APPLICATION_PROTOCOL_DEFINITION('international standard',
  'automotive_design',2000,#2);
#2 = APPLICATION_CONTEXT(
  'core data for automotive mechanical design processes');
#3 = SHAPE_DEFINITION_REPRESENTATION(#4,#10);
#4 = PRODUCT_DEFINITION_SHAPE('','',#5);
#5 = PRODUCT_DEFINITION('design','',#6,#9);
#6 = PRODUCT_DEFINITION_FORMATION('','',#7);
#7 = PRODUCT('Body','Body','',(#8));
#8 = PRODUCT_CONTEXT('',#2,'mechanical');
#9 = PRODUCT_DEFINITION_CONTEXT('part definition',#2,'design');
#10 = ADVANCED_BREP_SHAPE_REPRESENTATION('',(#11,#15),#1518);
#11 = AXIS2_PLACEMENT_3D('',#12,#13,#14);
#12 = CARTESIAN_POINT('',(0.,0.,0.));
#13 = DIRECTION('',(0.,0.,1.));
#14 = DIRECTION('',(1.,0.,-0.));
#15 = MANIFOLD_SOLID_BREP('',#16);
#16 = CLOSED_SHELL('',(#17,#79,#110,#141,#172,#203,#228,#253,#269,#340,
    #356,#372,#403,#434,#450,#529,#554,#579,#596,#627,#651,#675,#699,
    #730,#761,#778,#795,#824,#853,#870,#901,#930,#954,#978,#1002,#1031,
    #1054,#1065,#1082,#1098,#1115,#1131,#1142,#1181,#1220,#1231,#1242,
    #1254,#1270,#1282,#1307,#1332,#1357,#1382,#1407,#1432,#1457,#1482,
    #1491,#1500,#1509));
#17 = ADVANCED_FACE('',(#18,#52,#63),#74,.F.);
#18 = FACE_BOUND('',#19,.F.);
#19 = EDGE_LOOP('',(#20,#30,#38,#46));
#20 = ORIENTED_EDGE('',*,*,#21,.T.);
#21 = EDGE_CURVE('',#22,#24,#26,.T.);
#22 = VERTEX_POINT('',#23);
#23 = CARTESIAN_POINT('',(-34.6,-8.1,-8.193130505122E-17));
#24 = VERTEX_POINT('',#25);
#25 = CARTESIAN_POINT('',(34.6,-8.1,4.289402633239E-17));
#26 = LINE('',#27,#28);
#27 = CARTESIAN_POINT('',(-35.,-8.1,0.));
#28 = VECTOR('',#29,1.);
#29 = DIRECTION('',(1.,0.,0.));
#30 = ORIENTED_EDGE('',*,*,#31,.T.);
#31 = EDGE_CURVE('',#24,#32,#34,.T.);
#32 = VERTEX_POINT('',#33);
#33 = CARTESIAN_POINT('',(34.6,8.1,-8.193130505122E-17));
#34 = LINE('',#35,#36);
#35 = CARTESIAN_POINT('',(34.6,-8.5,0.));
#36 = VECTOR('',#37,1.);
#37 = DIRECTION('',(0.,1.,0.));
#38 = ORIENTED_EDGE('',*,*,#39,.T.);
#39 = EDGE_CURVE('',#32,#40,#42,.T.);
#40 = VERTEX_POINT('',#41);
#41 = CARTESIAN_POINT('',(-34.6,8.1,4.289402633239E-17));
#42 = LINE('',#43,#44);
#43 = CARTESIAN_POINT('',(35.,8.1,0.));
#44 = VECTOR('',#45,1.);
#45 = DIRECTION('',(-1.,0.,0.));
#46 = ORIENTED_EDGE('',*,*,#47,.T.);
#47 = EDGE_CURVE('',#40,#22,#48,.T.);
#48 = LINE('',#49,#50);
#49 = CARTESIAN_POINT('',(-34.6,8.5,0.));
#50 = VECTOR('',#51,1.);
#51 = DIRECTION('',(0.,-1.,0.));
#52 = FACE_BOUND('',#53,.F.);
#53 = EDGE_LOOP('',(#54));
#54 = ORIENTED_EDGE('',*,*,#55,.T.);
#55 = EDGE_CURVE('',#56,#56,#58,.T.);
#56 = VERTEX_POINT('',#57);
#57 = CARTESIAN_POINT('',(-22.75,0.,-7.771561172376E-16));
#58 = CIRCLE('',#59,1.75);
#59 = AXIS2_PLACEMENT_3D('',#60,#61,#62);
#60 = CARTESIAN_POINT('',(-24.5,0.,0.));
#61 = DIRECTION('',(0.,0.,-1.));
#62 = DIRECTION('',(1.,0.,0.));
#63 = FACE_BOUND('',#64,.F.);
#64 = EDGE_LOOP('',(#65));
#65 = ORIENTED_EDGE('',*,*,#66,.T.);
#66 = EDGE_CURVE('',#67,#67,#69,.T.);
#67 = VERTEX_POINT('',#68);
#68 = CARTESIAN_POINT('',(-4.75,0.,1.110223024625E-16));
#69 = CIRCLE('',#70,1.75);
#70 = AXIS2_PLACEMENT_3D('',#71,#72,#73);
#71 = CARTESIAN_POINT('',(-6.5,0.,0.));
#72 = DIRECTION('',(0.,0.,-1.));
#73 = DIRECTION('',(1.,0.,0.));
#74 = PLANE('',#75);
#75 = AXIS2_PLACEMENT_3D('',#76,#77,#78);
#76 = CARTESIAN_POINT('',(0.,0.,0.));
#77 = DIRECTION('',(0.,0.,1.));
#78 = DIRECTION('',(1.,0.,0.));
#79 = ADVANCED_FACE('',(#80),#105,.F.);
#80 = FACE_BOUND('',#81,.T.);
#81 = EDGE_LOOP('',(#82,#90,#91,#99));
#82 = ORIENTED_EDGE('',*,*,#83,.F.);
#83 = EDGE_CURVE('',#22,#84,#86,.T.);
#84 = VERTEX_POINT('',#85);
#85 = CARTESIAN_POINT('',(-34.6,-8.5,0.4));
#86 = LINE('',#87,#88);
#87 = CARTESIAN_POINT('',(-34.6,-8.2,1.E-01));
#88 = VECTOR('',#89,1.);
#89 = DIRECTION('',(3.46133283549E-15,-0.707106781187,0.707106781187));
#90 = ORIENTED_EDGE('',*,*,#21,.T.);
#91 = ORIENTED_EDGE('',*,*,#92,.F.);
#92 = EDGE_CURVE('',#93,#24,#95,.T.);
#93 = VERTEX_POINT('',#94);
#94 = CARTESIAN_POINT('',(34.6,-8.5,0.4));
#95 = LINE('',#96,#97);
#96 = CARTESIAN_POINT('',(34.6,-8.3,0.2));
#97 = VECTOR('',#98,1.);
#98 = DIRECTION('',(9.614813431918E-17,0.707106781187,-0.707106781187));
#99 = ORIENTED_EDGE('',*,*,#100,.F.);
#100 = EDGE_CURVE('',#84,#93,#101,.T.);
#101 = LINE('',#102,#103);
#102 = CARTESIAN_POINT('',(-35.,-8.5,0.4));
#103 = VECTOR('',#104,1.);
#104 = DIRECTION('',(1.,0.,0.));
#105 = PLANE('',#106);
#106 = AXIS2_PLACEMENT_3D('',#107,#108,#109);
#107 = CARTESIAN_POINT('',(-35.,-8.3,0.2));
#108 = DIRECTION('',(-3.474993633276E-18,0.707106781187,0.707106781187)
  );
#109 = DIRECTION('',(-1.,-2.457191562669E-18,-2.457191562669E-18));
#110 = ADVANCED_FACE('',(#111),#136,.F.);
#111 = FACE_BOUND('',#112,.T.);
#112 = EDGE_LOOP('',(#113,#121,#122,#130));
#113 = ORIENTED_EDGE('',*,*,#114,.F.);
#114 = EDGE_CURVE('',#40,#115,#117,.T.);
#115 = VERTEX_POINT('',#116);
#116 = CARTESIAN_POINT('',(-35.,8.1,0.4));
#117 = LINE('',#118,#119);
#118 = CARTESIAN_POINT('',(-34.7,8.1,0.1));
#119 = VECTOR('',#120,1.);
#120 = DIRECTION('',(-0.707106781187,6.441924999385E-15,0.707106781187)
  );
#121 = ORIENTED_EDGE('',*,*,#47,.T.);
#122 = ORIENTED_EDGE('',*,*,#123,.T.);
#123 = EDGE_CURVE('',#22,#124,#126,.T.);
#124 = VERTEX_POINT('',#125);
#125 = CARTESIAN_POINT('',(-35.,-8.1,0.4));
#126 = LINE('',#127,#128);
#127 = CARTESIAN_POINT('',(-34.7,-8.1,0.1));
#128 = VECTOR('',#129,1.);
#129 = DIRECTION('',(-0.707106781187,1.240310932717E-14,0.707106781187)
  );
#130 = ORIENTED_EDGE('',*,*,#131,.F.);
#131 = EDGE_CURVE('',#115,#124,#132,.T.);
#132 = LINE('',#133,#134);
#133 = CARTESIAN_POINT('',(-35.,8.5,0.4));
#134 = VECTOR('',#135,1.);
#135 = DIRECTION('',(0.,-1.,0.));
#136 = PLANE('',#137);
#137 = AXIS2_PLACEMENT_3D('',#138,#139,#140);
#138 = CARTESIAN_POINT('',(-34.8,8.5,0.2));
#139 = DIRECTION('',(0.707106781187,-6.949987266552E-18,0.707106781187)
  );
#140 = DIRECTION('',(4.914383125339E-18,1.,4.914383125339E-18));
#141 = ADVANCED_FACE('',(#142),#167,.F.);
#142 = FACE_BOUND('',#143,.T.);
#143 = EDGE_LOOP('',(#144,#152,#153,#161));
#144 = ORIENTED_EDGE('',*,*,#145,.T.);
#145 = EDGE_CURVE('',#146,#24,#148,.T.);
#146 = VERTEX_POINT('',#147);
#147 = CARTESIAN_POINT('',(35.,-8.1,0.4));
#148 = LINE('',#149,#150);
#149 = CARTESIAN_POINT('',(34.9,-8.1,0.3));
#150 = VECTOR('',#151,1.);
#151 = DIRECTION('',(-0.707106781187,6.345776865066E-15,-0.707106781187)
  );
#152 = ORIENTED_EDGE('',*,*,#31,.T.);
#153 = ORIENTED_EDGE('',*,*,#154,.F.);
#154 = EDGE_CURVE('',#155,#32,#157,.T.);
#155 = VERTEX_POINT('',#156);
#156 = CARTESIAN_POINT('',(35.,8.1,0.4));
#157 = LINE('',#158,#159);
#158 = CARTESIAN_POINT('',(34.8,8.1,0.2));
#159 = VECTOR('',#160,1.);
#160 = DIRECTION('',(-0.707106781187,1.240310932717E-14,-0.707106781187)
  );
#161 = ORIENTED_EDGE('',*,*,#162,.F.);
#162 = EDGE_CURVE('',#146,#155,#163,.T.);
#163 = LINE('',#164,#165);
#164 = CARTESIAN_POINT('',(35.,-8.5,0.4));
#165 = VECTOR('',#166,1.);
#166 = DIRECTION('',(0.,1.,0.));
#167 = PLANE('',#168);
#168 = AXIS2_PLACEMENT_3D('',#169,#170,#171);
#169 = CARTESIAN_POINT('',(34.8,-8.5,0.2));
#170 = DIRECTION('',(-0.707106781187,6.949987266552E-18,0.707106781187)
  );
#171 = DIRECTION('',(-4.914383125339E-18,-1.,4.914383125339E-18));
#172 = ADVANCED_FACE('',(#173),#198,.F.);
#173 = FACE_BOUND('',#174,.T.);
#174 = EDGE_LOOP('',(#175,#183,#184,#192));
#175 = ORIENTED_EDGE('',*,*,#176,.T.);
#176 = EDGE_CURVE('',#177,#32,#179,.T.);
#177 = VERTEX_POINT('',#178);
#178 = CARTESIAN_POINT('',(34.6,8.5,0.4));
#179 = LINE('',#180,#181);
#180 = CARTESIAN_POINT('',(34.6,8.4,0.3));
#181 = VECTOR('',#182,1.);
#182 = DIRECTION('',(3.46133283549E-15,-0.707106781187,-0.707106781187)
  );
#183 = ORIENTED_EDGE('',*,*,#39,.T.);
#184 = ORIENTED_EDGE('',*,*,#185,.T.);
#185 = EDGE_CURVE('',#40,#186,#188,.T.);
#186 = VERTEX_POINT('',#187);
#187 = CARTESIAN_POINT('',(-34.6,8.5,0.4));
#188 = LINE('',#189,#190);
#189 = CARTESIAN_POINT('',(-34.6,8.2,0.1));
#190 = VECTOR('',#191,1.);
#191 = DIRECTION('',(9.614813431918E-17,0.707106781187,0.707106781187));
#192 = ORIENTED_EDGE('',*,*,#193,.F.);
#193 = EDGE_CURVE('',#177,#186,#194,.T.);
#194 = LINE('',#195,#196);
#195 = CARTESIAN_POINT('',(35.,8.5,0.4));
#196 = VECTOR('',#197,1.);
#197 = DIRECTION('',(-1.,0.,0.));
#198 = PLANE('',#199);
#199 = AXIS2_PLACEMENT_3D('',#200,#201,#202);
#200 = CARTESIAN_POINT('',(35.,8.3,0.2));
#201 = DIRECTION('',(3.474993633276E-18,-0.707106781187,0.707106781187)
  );
#202 = DIRECTION('',(1.,2.457191562669E-18,-2.457191562669E-18));
#203 = ADVANCED_FACE('',(#204),#223,.F.);
#204 = FACE_BOUND('',#205,.T.);
#205 = EDGE_LOOP('',(#206,#214,#215,#216));
#206 = ORIENTED_EDGE('',*,*,#207,.F.);
#207 = EDGE_CURVE('',#56,#208,#210,.T.);
#208 = VERTEX_POINT('',#209);
#209 = CARTESIAN_POINT('',(-23.15,0.,0.4));
#210 = LINE('',#211,#212);
#211 = CARTESIAN_POINT('',(-23.15,0.,0.4));
#212 = VECTOR('',#213,1.);
#213 = DIRECTION('',(-0.707106781187,0.,0.707106781187));
#214 = ORIENTED_EDGE('',*,*,#55,.T.);
#215 = ORIENTED_EDGE('',*,*,#207,.T.);
#216 = ORIENTED_EDGE('',*,*,#217,.F.);
#217 = EDGE_CURVE('',#208,#208,#218,.T.);
#218 = CIRCLE('',#219,1.35);
#219 = AXIS2_PLACEMENT_3D('',#220,#221,#222);
#220 = CARTESIAN_POINT('',(-24.5,0.,0.4));
#221 = DIRECTION('',(0.,0.,-1.));
#222 = DIRECTION('',(1.,0.,0.));
#223 = CONICAL_SURFACE('',#224,1.35,0.785398163397);
#224 = AXIS2_PLACEMENT_3D('',#225,#226,#227);
#225 = CARTESIAN_POINT('',(-24.5,0.,0.4));
#226 = DIRECTION('',(-0.,-0.,-1.));
#227 = DIRECTION('',(1.,0.,0.));
#228 = ADVANCED_FACE('',(#229),#248,.F.);
#229 = FACE_BOUND('',#230,.T.);
#230 = EDGE_LOOP('',(#231,#239,#240,#241));
#231 = ORIENTED_EDGE('',*,*,#232,.F.);
#232 = EDGE_CURVE('',#67,#233,#235,.T.);
#233 = VERTEX_POINT('',#234);
#234 = CARTESIAN_POINT('',(-5.15,0.,0.4));
#235 = LINE('',#236,#237);
#236 = CARTESIAN_POINT('',(-5.15,0.,0.4));
#237 = VECTOR('',#238,1.);
#238 = DIRECTION('',(-0.707106781187,0.,0.707106781187));
#239 = ORIENTED_EDGE('',*,*,#66,.T.);
#240 = ORIENTED_EDGE('',*,*,#232,.T.);
#241 = ORIENTED_EDGE('',*,*,#242,.F.);
#242 = EDGE_CURVE('',#233,#233,#243,.T.);
#243 = CIRCLE('',#244,1.35);
#244 = AXIS2_PLACEMENT_3D('',#245,#246,#247);
#245 = CARTESIAN_POINT('',(-6.5,0.,0.4));
#246 = DIRECTION('',(0.,0.,-1.));
#247 = DIRECTION('',(1.,0.,0.));
#248 = CONICAL_SURFACE('',#249,1.35,0.785398163397);
#249 = AXIS2_PLACEMENT_3D('',#250,#251,#252);
#250 = CARTESIAN_POINT('',(-6.5,0.,0.4));
#251 = DIRECTION('',(-0.,-0.,-1.));
#252 = DIRECTION('',(1.,0.,0.));
#253 = ADVANCED_FACE('',(#254),#264,.F.);
#254 = FACE_BOUND('',#255,.F.);
#255 = EDGE_LOOP('',(#256,#257,#258));
#256 = ORIENTED_EDGE('',*,*,#83,.F.);
#257 = ORIENTED_EDGE('',*,*,#123,.T.);
#258 = ORIENTED_EDGE('',*,*,#259,.F.);
#259 = EDGE_CURVE('',#84,#124,#260,.T.);
#260 = LINE('',#261,#262);
#261 = CARTESIAN_POINT('',(-34.8,-8.3,0.4));
#262 = VECTOR('',#263,1.);
#263 = DIRECTION('',(-0.707106781187,0.707106781187,8.941776491684E-15)
  );
#264 = PLANE('',#265);
#265 = AXIS2_PLACEMENT_3D('',#266,#267,#268);
#266 = CARTESIAN_POINT('',(-34.6,-8.1,-8.193130505122E-17));
#267 = DIRECTION('',(0.57735026919,0.57735026919,0.57735026919));
#268 = DIRECTION('',(-0.707106781187,0.707106781187,-4.163336342344E-16)
  );
#269 = ADVANCED_FACE('',(#270),#335,.T.);
#270 = FACE_BOUND('',#271,.T.);
#271 = EDGE_LOOP('',(#272,#282,#290,#298,#306,#312,#313,#321,#329));
#272 = ORIENTED_EDGE('',*,*,#273,.F.);
#273 = EDGE_CURVE('',#274,#276,#278,.T.);
#274 = VERTEX_POINT('',#275);
#275 = CARTESIAN_POINT('',(-29.6,-8.5,5.6));
#276 = VERTEX_POINT('',#277);
#277 = CARTESIAN_POINT('',(30.4,-8.5,5.6));
#278 = LINE('',#279,#280);
#279 = CARTESIAN_POINT('',(-30.,-8.5,5.6));
#280 = VECTOR('',#281,1.);
#281 = DIRECTION('',(1.,0.,0.));
#282 = ORIENTED_EDGE('',*,*,#283,.T.);
#283 = EDGE_CURVE('',#274,#284,#286,.T.);
#284 = VERTEX_POINT('',#285);
#285 = CARTESIAN_POINT('',(-30.4,-8.5,6.4));
#286 = LINE('',#287,#288);
#287 = CARTESIAN_POINT('',(-21.67804878048,-8.5,-2.321951219512));
#288 = VECTOR('',#289,1.);
#289 = DIRECTION('',(-0.707106781187,0.,0.707106781187));
#290 = ORIENTED_EDGE('',*,*,#291,.T.);
#291 = EDGE_CURVE('',#284,#292,#294,.T.);
#292 = VERTEX_POINT('',#293);
#293 = CARTESIAN_POINT('',(-30.4,-8.5,8.6));
#294 = LINE('',#295,#296);
#295 = CARTESIAN_POINT('',(-30.4,-8.5,6.));
#296 = VECTOR('',#297,1.);
#297 = DIRECTION('',(0.,0.,1.));
#298 = ORIENTED_EDGE('',*,*,#299,.F.);
#299 = EDGE_CURVE('',#300,#292,#302,.T.);
#300 = VERTEX_POINT('',#301);
#301 = CARTESIAN_POINT('',(-34.6,-8.5,8.6));
#302 = LINE('',#303,#304);
#303 = CARTESIAN_POINT('',(-35.,-8.5,8.6));
#304 = VECTOR('',#305,1.);
#305 = DIRECTION('',(1.,0.,0.));
#306 = ORIENTED_EDGE('',*,*,#307,.F.);
#307 = EDGE_CURVE('',#84,#300,#308,.T.);
#308 = LINE('',#309,#310);
#309 = CARTESIAN_POINT('',(-34.6,-8.5,-3.552713678801E-15));
#310 = VECTOR('',#311,1.);
#311 = DIRECTION('',(0.,0.,1.));
#312 = ORIENTED_EDGE('',*,*,#100,.T.);
#313 = ORIENTED_EDGE('',*,*,#314,.T.);
#314 = EDGE_CURVE('',#93,#315,#317,.T.);
#315 = VERTEX_POINT('',#316);
#316 = CARTESIAN_POINT('',(34.6,-8.5,8.6));
#317 = LINE('',#318,#319);
#318 = CARTESIAN_POINT('',(34.6,-8.5,3.552713678801E-15));
#319 = VECTOR('',#320,1.);
#320 = DIRECTION('',(0.,0.,1.));
#321 = ORIENTED_EDGE('',*,*,#322,.T.);
#322 = EDGE_CURVE('',#315,#323,#325,.T.);
#323 = VERTEX_POINT('',#324);
#324 = CARTESIAN_POINT('',(30.4,-8.5,8.6));
#325 = LINE('',#326,#327);
#326 = CARTESIAN_POINT('',(35.,-8.5,8.6));
#327 = VECTOR('',#328,1.);
#328 = DIRECTION('',(-1.,2.22044604925E-16,-2.22044604925E-16));
#329 = ORIENTED_EDGE('',*,*,#330,.F.);
#330 = EDGE_CURVE('',#276,#323,#331,.T.);
#331 = LINE('',#332,#333);
#332 = CARTESIAN_POINT('',(30.4,-8.5,6.));
#333 = VECTOR('',#334,1.);
#334 = DIRECTION('',(-2.22044604925E-16,2.465190328816E-32,1.));
#335 = PLANE('',#336);
#336 = AXIS2_PLACEMENT_3D('',#337,#338,#339);
#337 = CARTESIAN_POINT('',(1.039818637698E-15,-8.5,3.512195121951));
#338 = DIRECTION('',(-0.,-1.,-0.));
#339 = DIRECTION('',(0.,0.,-1.));
#340 = ADVANCED_FACE('',(#341),#351,.F.);
#341 = FACE_BOUND('',#342,.F.);
#342 = EDGE_LOOP('',(#343,#349,#350));
#343 = ORIENTED_EDGE('',*,*,#344,.F.);
#344 = EDGE_CURVE('',#146,#93,#345,.T.);
#345 = LINE('',#346,#347);
#346 = CARTESIAN_POINT('',(34.9,-8.2,0.4));
#347 = VECTOR('',#348,1.);
#348 = DIRECTION('',(-0.707106781187,-0.707106781187,6.345776865066E-15)
  );
#349 = ORIENTED_EDGE('',*,*,#145,.T.);
#350 = ORIENTED_EDGE('',*,*,#92,.F.);
#351 = PLANE('',#352);
#352 = AXIS2_PLACEMENT_3D('',#353,#354,#355);
#353 = CARTESIAN_POINT('',(35.,-8.1,0.4));
#354 = DIRECTION('',(-0.57735026919,0.57735026919,0.57735026919));
#355 = DIRECTION('',(0.,0.707106781187,-0.707106781187));
#356 = ADVANCED_FACE('',(#357),#367,.T.);
#357 = FACE_BOUND('',#358,.T.);
#358 = EDGE_LOOP('',(#359,#360,#361));
#359 = ORIENTED_EDGE('',*,*,#185,.F.);
#360 = ORIENTED_EDGE('',*,*,#114,.T.);
#361 = ORIENTED_EDGE('',*,*,#362,.F.);
#362 = EDGE_CURVE('',#186,#115,#363,.T.);
#363 = LINE('',#364,#365);
#364 = CARTESIAN_POINT('',(-34.8,8.3,0.4));
#365 = VECTOR('',#366,1.);
#366 = DIRECTION('',(-0.707106781187,-0.707106781187,-6.538073133704E-15
    ));
#367 = PLANE('',#368);
#368 = AXIS2_PLACEMENT_3D('',#369,#370,#371);
#369 = CARTESIAN_POINT('',(-34.6,8.1,4.289402633239E-17));
#370 = DIRECTION('',(-0.57735026919,0.57735026919,-0.57735026919));
#371 = DIRECTION('',(-0.707106781187,-0.707106781187,-2.22044604925E-16)
  );
#372 = ADVANCED_FACE('',(#373),#398,.T.);
#373 = FACE_BOUND('',#374,.T.);
#374 = EDGE_LOOP('',(#375,#383,#391,#397));
#375 = ORIENTED_EDGE('',*,*,#376,.T.);
#376 = EDGE_CURVE('',#124,#377,#379,.T.);
#377 = VERTEX_POINT('',#378);
#378 = CARTESIAN_POINT('',(-35.,-8.1,8.6));
#379 = LINE('',#380,#381);
#380 = CARTESIAN_POINT('',(-35.,-8.1,-3.552713678801E-15));
#381 = VECTOR('',#382,1.);
#382 = DIRECTION('',(0.,0.,1.));
#383 = ORIENTED_EDGE('',*,*,#384,.F.);
#384 = EDGE_CURVE('',#385,#377,#387,.T.);
#385 = VERTEX_POINT('',#386);
#386 = CARTESIAN_POINT('',(-35.,8.1,8.6));
#387 = LINE('',#388,#389);
#388 = CARTESIAN_POINT('',(-35.,8.5,8.6));
#389 = VECTOR('',#390,1.);
#390 = DIRECTION('',(0.,-1.,0.));
#391 = ORIENTED_EDGE('',*,*,#392,.F.);
#392 = EDGE_CURVE('',#115,#385,#393,.T.);
#393 = LINE('',#394,#395);
#394 = CARTESIAN_POINT('',(-35.,8.1,-3.552713678801E-15));
#395 = VECTOR('',#396,1.);
#396 = DIRECTION('',(0.,0.,1.));
#397 = ORIENTED_EDGE('',*,*,#131,.T.);
#398 = PLANE('',#399);
#399 = AXIS2_PLACEMENT_3D('',#400,#401,#402);
#400 = CARTESIAN_POINT('',(-35.,-6.832141690001E-17,4.5));
#401 = DIRECTION('',(-1.,-0.,-0.));
#402 = DIRECTION('',(0.,0.,-1.));
#403 = ADVANCED_FACE('',(#404),#429,.T.);
#404 = FACE_BOUND('',#405,.T.);
#405 = EDGE_LOOP('',(#406,#414,#415,#423));
#406 = ORIENTED_EDGE('',*,*,#407,.F.);
#407 = EDGE_CURVE('',#146,#408,#410,.T.);
#408 = VERTEX_POINT('',#409);
#409 = CARTESIAN_POINT('',(35.,-8.1,8.6));
#410 = LINE('',#411,#412);
#411 = CARTESIAN_POINT('',(35.,-8.1,3.552713678801E-15));
#412 = VECTOR('',#413,1.);
#413 = DIRECTION('',(0.,0.,1.));
#414 = ORIENTED_EDGE('',*,*,#162,.T.);
#415 = ORIENTED_EDGE('',*,*,#416,.T.);
#416 = EDGE_CURVE('',#155,#417,#419,.T.);
#417 = VERTEX_POINT('',#418);
#418 = CARTESIAN_POINT('',(35.,8.1,8.6));
#419 = LINE('',#420,#421);
#420 = CARTESIAN_POINT('',(35.,8.1,3.552713678801E-15));
#421 = VECTOR('',#422,1.);
#422 = DIRECTION('',(0.,0.,1.));
#423 = ORIENTED_EDGE('',*,*,#424,.T.);
#424 = EDGE_CURVE('',#417,#408,#425,.T.);
#425 = LINE('',#426,#427);
#426 = CARTESIAN_POINT('',(35.,8.5,8.6));
#427 = VECTOR('',#428,1.);
#428 = DIRECTION('',(-2.22044604925E-16,-1.,-2.465190328816E-32));
#429 = PLANE('',#430);
#430 = AXIS2_PLACEMENT_3D('',#431,#432,#433);
#431 = CARTESIAN_POINT('',(35.,-2.9378209267E-15,4.5));
#432 = DIRECTION('',(1.,0.,3.050309724223E-16));
#433 = DIRECTION('',(-3.050309724223E-16,0.,1.));
#434 = ADVANCED_FACE('',(#435),#445,.F.);
#435 = FACE_BOUND('',#436,.F.);
#436 = EDGE_LOOP('',(#437,#443,#444));
#437 = ORIENTED_EDGE('',*,*,#438,.F.);
#438 = EDGE_CURVE('',#177,#155,#439,.T.);
#439 = LINE('',#440,#441);
#440 = CARTESIAN_POINT('',(34.7,8.4,0.4));
#441 = VECTOR('',#442,1.);
#442 = DIRECTION('',(0.707106781187,-0.707106781187,9.037924626003E-15)
  );
#443 = ORIENTED_EDGE('',*,*,#176,.T.);
#444 = ORIENTED_EDGE('',*,*,#154,.F.);
#445 = PLANE('',#446);
#446 = AXIS2_PLACEMENT_3D('',#447,#448,#449);
#447 = CARTESIAN_POINT('',(34.6,8.5,0.4));
#448 = DIRECTION('',(-0.57735026919,-0.57735026919,0.57735026919));
#449 = DIRECTION('',(-0.707106781187,-5.551115123126E-17,-0.707106781187
    ));
#450 = ADVANCED_FACE('',(#451),#524,.T.);
#451 = FACE_BOUND('',#452,.T.);
#452 = EDGE_LOOP('',(#453,#463,#471,#477,#478,#486,#494,#502,#510,#518)
  );
#453 = ORIENTED_EDGE('',*,*,#454,.T.);
#454 = EDGE_CURVE('',#455,#457,#459,.T.);
#455 = VERTEX_POINT('',#456);
#456 = CARTESIAN_POINT('',(30.,8.5,6.));
#457 = VERTEX_POINT('',#458);
#458 = CARTESIAN_POINT('',(30.,8.5,8.6));
#459 = LINE('',#460,#461);
#460 = CARTESIAN_POINT('',(30.,8.5,6.));
#461 = VECTOR('',#462,1.);
#462 = DIRECTION('',(-2.22044604925E-16,2.465190328816E-32,1.));
#463 = ORIENTED_EDGE('',*,*,#464,.T.);
#464 = EDGE_CURVE('',#457,#465,#467,.T.);
#465 = VERTEX_POINT('',#466);
#466 = CARTESIAN_POINT('',(34.6,8.5,8.6));
#467 = LINE('',#468,#469);
#468 = CARTESIAN_POINT('',(30.,8.5,8.6));
#469 = VECTOR('',#470,1.);
#470 = DIRECTION('',(1.,-2.22044604925E-16,2.22044604925E-16));
#471 = ORIENTED_EDGE('',*,*,#472,.F.);
#472 = EDGE_CURVE('',#177,#465,#473,.T.);
#473 = LINE('',#474,#475);
#474 = CARTESIAN_POINT('',(34.6,8.5,3.552713678801E-15));
#475 = VECTOR('',#476,1.);
#476 = DIRECTION('',(0.,0.,1.));
#477 = ORIENTED_EDGE('',*,*,#193,.T.);
#478 = ORIENTED_EDGE('',*,*,#479,.T.);
#479 = EDGE_CURVE('',#186,#480,#482,.T.);
#480 = VERTEX_POINT('',#481);
#481 = CARTESIAN_POINT('',(-34.6,8.5,8.6));
#482 = LINE('',#483,#484);
#483 = CARTESIAN_POINT('',(-34.6,8.5,-3.552713678801E-15));
#484 = VECTOR('',#485,1.);
#485 = DIRECTION('',(0.,0.,1.));
#486 = ORIENTED_EDGE('',*,*,#487,.F.);
#487 = EDGE_CURVE('',#488,#480,#490,.T.);
#488 = VERTEX_POINT('',#489);
#489 = CARTESIAN_POINT('',(-30.4,8.5,8.6));
#490 = LINE('',#491,#492);
#491 = CARTESIAN_POINT('',(-30.,8.5,8.6));
#492 = VECTOR('',#493,1.);
#493 = DIRECTION('',(-1.,0.,0.));
#494 = ORIENTED_EDGE('',*,*,#495,.F.);
#495 = EDGE_CURVE('',#496,#488,#498,.T.);
#496 = VERTEX_POINT('',#497);
#497 = CARTESIAN_POINT('',(-30.4,8.5,6.4));
#498 = LINE('',#499,#500);
#499 = CARTESIAN_POINT('',(-30.4,8.5,6.));
#500 = VECTOR('',#501,1.);
#501 = DIRECTION('',(0.,0.,1.));
#502 = ORIENTED_EDGE('',*,*,#503,.F.);
#503 = EDGE_CURVE('',#504,#496,#506,.T.);
#504 = VERTEX_POINT('',#505);
#505 = CARTESIAN_POINT('',(-29.6,8.5,5.6));
#506 = LINE('',#507,#508);
#507 = CARTESIAN_POINT('',(-21.67804878048,8.5,-2.321951219512));
#508 = VECTOR('',#509,1.);
#509 = DIRECTION('',(-0.707106781187,0.,0.707106781187));
#510 = ORIENTED_EDGE('',*,*,#511,.F.);
#511 = EDGE_CURVE('',#512,#504,#514,.T.);
#512 = VERTEX_POINT('',#513);
#513 = CARTESIAN_POINT('',(30.,8.5,5.6));
#514 = LINE('',#515,#516);
#515 = CARTESIAN_POINT('',(30.,8.5,5.6));
#516 = VECTOR('',#517,1.);
#517 = DIRECTION('',(-1.,0.,0.));
#518 = ORIENTED_EDGE('',*,*,#519,.F.);
#519 = EDGE_CURVE('',#455,#512,#520,.T.);
#520 = LINE('',#521,#522);
#521 = CARTESIAN_POINT('',(30.,8.5,4.756097560976));
#522 = VECTOR('',#523,1.);
#523 = DIRECTION('',(2.22044604925E-16,0.,-1.));
#524 = PLANE('',#525);
#525 = AXIS2_PLACEMENT_3D('',#526,#527,#528);
#526 = CARTESIAN_POINT('',(2.252940381678E-15,8.5,3.512195121951));
#527 = DIRECTION('',(0.,1.,0.));
#528 = DIRECTION('',(0.,0.,1.));
#529 = ADVANCED_FACE('',(#530),#549,.F.);
#530 = FACE_BOUND('',#531,.F.);
#531 = EDGE_LOOP('',(#532,#540,#541,#542));
#532 = ORIENTED_EDGE('',*,*,#533,.F.);
#533 = EDGE_CURVE('',#208,#534,#536,.T.);
#534 = VERTEX_POINT('',#535);
#535 = CARTESIAN_POINT('',(-23.15,0.,6.));
#536 = LINE('',#537,#538);
#537 = CARTESIAN_POINT('',(-23.15,0.,0.));
#538 = VECTOR('',#539,1.);
#539 = DIRECTION('',(0.,0.,1.));
#540 = ORIENTED_EDGE('',*,*,#217,.F.);
#541 = ORIENTED_EDGE('',*,*,#533,.T.);
#542 = ORIENTED_EDGE('',*,*,#543,.T.);
#543 = EDGE_CURVE('',#534,#534,#544,.T.);
#544 = CIRCLE('',#545,1.35);
#545 = AXIS2_PLACEMENT_3D('',#546,#547,#548);
#546 = CARTESIAN_POINT('',(-24.5,0.,6.));
#547 = DIRECTION('',(0.,0.,-1.));
#548 = DIRECTION('',(1.,0.,0.));
#549 = CYLINDRICAL_SURFACE('',#550,1.35);
#550 = AXIS2_PLACEMENT_3D('',#551,#552,#553);
#551 = CARTESIAN_POINT('',(-24.5,0.,0.));
#552 = DIRECTION('',(0.,0.,-1.));
#553 = DIRECTION('',(1.,0.,0.));
#554 = ADVANCED_FACE('',(#555),#574,.F.);
#555 = FACE_BOUND('',#556,.F.);
#556 = EDGE_LOOP('',(#557,#565,#566,#567));
#557 = ORIENTED_EDGE('',*,*,#558,.F.);
#558 = EDGE_CURVE('',#233,#559,#561,.T.);
#559 = VERTEX_POINT('',#560);
#560 = CARTESIAN_POINT('',(-5.15,0.,6.));
#561 = LINE('',#562,#563);
#562 = CARTESIAN_POINT('',(-5.15,0.,0.));
#563 = VECTOR('',#564,1.);
#564 = DIRECTION('',(0.,0.,1.));
#565 = ORIENTED_EDGE('',*,*,#242,.F.);
#566 = ORIENTED_EDGE('',*,*,#558,.T.);
#567 = ORIENTED_EDGE('',*,*,#568,.T.);
#568 = EDGE_CURVE('',#559,#559,#569,.T.);
#569 = CIRCLE('',#570,1.35);
#570 = AXIS2_PLACEMENT_3D('',#571,#572,#573);
#571 = CARTESIAN_POINT('',(-6.5,0.,6.));
#572 = DIRECTION('',(0.,0.,-1.));
#573 = DIRECTION('',(1.,0.,0.));
#574 = CYLINDRICAL_SURFACE('',#575,1.35);
#575 = AXIS2_PLACEMENT_3D('',#576,#577,#578);
#576 = CARTESIAN_POINT('',(-6.5,0.,0.));
#577 = DIRECTION('',(0.,0.,-1.));
#578 = DIRECTION('',(1.,0.,0.));
#579 = ADVANCED_FACE('',(#580),#591,.T.);
#580 = FACE_BOUND('',#581,.F.);
#581 = EDGE_LOOP('',(#582,#583,#589,#590));
#582 = ORIENTED_EDGE('',*,*,#376,.T.);
#583 = ORIENTED_EDGE('',*,*,#584,.T.);
#584 = EDGE_CURVE('',#377,#300,#585,.T.);
#585 = LINE('',#586,#587);
#586 = CARTESIAN_POINT('',(-34.9,-8.2,8.6));
#587 = VECTOR('',#588,1.);
#588 = DIRECTION('',(0.707106781187,-0.707106781187,3.172888432533E-15)
  );
#589 = ORIENTED_EDGE('',*,*,#307,.F.);
#590 = ORIENTED_EDGE('',*,*,#259,.T.);
#591 = PLANE('',#592);
#592 = AXIS2_PLACEMENT_3D('',#593,#594,#595);
#593 = CARTESIAN_POINT('',(-34.8,-8.3,-3.552713678801E-15));
#594 = DIRECTION('',(-0.707106781187,-0.707106781187,0.));
#595 = DIRECTION('',(-0.,-0.,-1.));
#596 = ADVANCED_FACE('',(#597),#622,.T.);
#597 = FACE_BOUND('',#598,.T.);
#598 = EDGE_LOOP('',(#599,#607,#608,#616));
#599 = ORIENTED_EDGE('',*,*,#600,.F.);
#600 = EDGE_CURVE('',#274,#601,#603,.T.);
#601 = VERTEX_POINT('',#602);
#602 = CARTESIAN_POINT('',(-29.6,-8.1,6.));
#603 = LINE('',#604,#605);
#604 = CARTESIAN_POINT('',(-29.6,-8.4,5.7));
#605 = VECTOR('',#606,1.);
#606 = DIRECTION('',(0.,0.707106781187,0.707106781187));
#607 = ORIENTED_EDGE('',*,*,#273,.T.);
#608 = ORIENTED_EDGE('',*,*,#609,.T.);
#609 = EDGE_CURVE('',#276,#610,#612,.T.);
#610 = VERTEX_POINT('',#611);
#611 = CARTESIAN_POINT('',(30.,-8.1,6.));
#612 = LINE('',#613,#614);
#613 = CARTESIAN_POINT('',(20.133333333333,1.766666666667,
    15.866666666667));
#614 = VECTOR('',#615,1.);
#615 = DIRECTION('',(-0.57735026919,0.57735026919,0.57735026919));
#616 = ORIENTED_EDGE('',*,*,#617,.F.);
#617 = EDGE_CURVE('',#601,#610,#618,.T.);
#618 = LINE('',#619,#620);
#619 = CARTESIAN_POINT('',(-30.,-8.1,6.));
#620 = VECTOR('',#621,1.);
#621 = DIRECTION('',(1.,0.,0.));
#622 = PLANE('',#623);
#623 = AXIS2_PLACEMENT_3D('',#624,#625,#626);
#624 = CARTESIAN_POINT('',(-30.,-8.3,5.8));
#625 = DIRECTION('',(0.,-0.707106781187,0.707106781187));
#626 = DIRECTION('',(1.,0.,0.));
#627 = ADVANCED_FACE('',(#628),#646,.F.);
#628 = FACE_BOUND('',#629,.F.);
#629 = EDGE_LOOP('',(#630,#631,#632,#640));
#630 = ORIENTED_EDGE('',*,*,#600,.F.);
#631 = ORIENTED_EDGE('',*,*,#283,.T.);
#632 = ORIENTED_EDGE('',*,*,#633,.T.);
#633 = EDGE_CURVE('',#284,#634,#636,.T.);
#634 = VERTEX_POINT('',#635);
#635 = CARTESIAN_POINT('',(-30.,-8.1,6.4));
#636 = LINE('',#637,#638);
#637 = CARTESIAN_POINT('',(-30.1,-8.2,6.4));
#638 = VECTOR('',#639,1.);
#639 = DIRECTION('',(0.707106781187,0.707106781187,-2.980592163895E-15)
  );
#640 = ORIENTED_EDGE('',*,*,#641,.F.);
#641 = EDGE_CURVE('',#601,#634,#642,.T.);
#642 = LINE('',#643,#644);
#643 = CARTESIAN_POINT('',(-29.6,-8.1,6.));
#644 = VECTOR('',#645,1.);
#645 = DIRECTION('',(-0.707106781187,-2.980592163895E-15,0.707106781187)
  );
#646 = PLANE('',#647);
#647 = AXIS2_PLACEMENT_3D('',#648,#649,#650);
#648 = CARTESIAN_POINT('',(-29.6,-8.5,5.6));
#649 = DIRECTION('',(-0.57735026919,0.57735026919,-0.57735026919));
#650 = DIRECTION('',(-0.707106781187,-3.136380044566E-15,0.707106781187)
  );
#651 = ADVANCED_FACE('',(#652),#670,.T.);
#652 = FACE_BOUND('',#653,.T.);
#653 = EDGE_LOOP('',(#654,#655,#656,#664));
#654 = ORIENTED_EDGE('',*,*,#609,.F.);
#655 = ORIENTED_EDGE('',*,*,#330,.T.);
#656 = ORIENTED_EDGE('',*,*,#657,.F.);
#657 = EDGE_CURVE('',#658,#323,#660,.T.);
#658 = VERTEX_POINT('',#659);
#659 = CARTESIAN_POINT('',(30.,-8.1,8.6));
#660 = LINE('',#661,#662);
#661 = CARTESIAN_POINT('',(30.1,-8.2,8.6));
#662 = VECTOR('',#663,1.);
#663 = DIRECTION('',(0.707106781187,-0.707106781187,-9.614813431918E-17)
  );
#664 = ORIENTED_EDGE('',*,*,#665,.F.);
#665 = EDGE_CURVE('',#610,#658,#666,.T.);
#666 = LINE('',#667,#668);
#667 = CARTESIAN_POINT('',(30.,-8.1,6.));
#668 = VECTOR('',#669,1.);
#669 = DIRECTION('',(-2.22044604925E-16,2.465190328816E-32,1.));
#670 = PLANE('',#671);
#671 = AXIS2_PLACEMENT_3D('',#672,#673,#674);
#672 = CARTESIAN_POINT('',(30.2,-8.3,6.));
#673 = DIRECTION('',(-0.707106781187,-0.707106781187,-2.501995415959E-16
    ));
#674 = DIRECTION('',(-2.879400949747E-16,-6.589549004969E-17,1.));
#675 = ADVANCED_FACE('',(#676),#694,.F.);
#676 = FACE_BOUND('',#677,.F.);
#677 = EDGE_LOOP('',(#678,#679,#680,#688));
#678 = ORIENTED_EDGE('',*,*,#633,.F.);
#679 = ORIENTED_EDGE('',*,*,#291,.T.);
#680 = ORIENTED_EDGE('',*,*,#681,.T.);
#681 = EDGE_CURVE('',#292,#682,#684,.T.);
#682 = VERTEX_POINT('',#683);
#683 = CARTESIAN_POINT('',(-30.,-8.1,8.6));
#684 = LINE('',#685,#686);
#685 = CARTESIAN_POINT('',(-30.2,-8.3,8.6));
#686 = VECTOR('',#687,1.);
#687 = DIRECTION('',(0.707106781187,0.707106781187,6.345776865066E-15));
#688 = ORIENTED_EDGE('',*,*,#689,.F.);
#689 = EDGE_CURVE('',#634,#682,#690,.T.);
#690 = LINE('',#691,#692);
#691 = CARTESIAN_POINT('',(-30.,-8.1,6.));
#692 = VECTOR('',#693,1.);
#693 = DIRECTION('',(0.,0.,1.));
#694 = PLANE('',#695);
#695 = AXIS2_PLACEMENT_3D('',#696,#697,#698);
#696 = CARTESIAN_POINT('',(-30.2,-8.3,6.));
#697 = DIRECTION('',(-0.707106781187,0.707106781187,0.));
#698 = DIRECTION('',(0.,0.,1.));
#699 = ADVANCED_FACE('',(#700),#725,.F.);
#700 = FACE_BOUND('',#701,.F.);
#701 = EDGE_LOOP('',(#702,#703,#711,#719));
#702 = ORIENTED_EDGE('',*,*,#322,.T.);
#703 = ORIENTED_EDGE('',*,*,#704,.F.);
#704 = EDGE_CURVE('',#705,#323,#707,.T.);
#705 = VERTEX_POINT('',#706);
#706 = CARTESIAN_POINT('',(30.4,-8.1,9.));
#707 = LINE('',#708,#709);
#708 = CARTESIAN_POINT('',(30.4,-8.3,8.8));
#709 = VECTOR('',#710,1.);
#710 = DIRECTION('',(-2.980592163895E-15,-0.707106781187,-0.707106781187
    ));
#711 = ORIENTED_EDGE('',*,*,#712,.F.);
#712 = EDGE_CURVE('',#713,#705,#715,.T.);
#713 = VERTEX_POINT('',#714);
#714 = CARTESIAN_POINT('',(34.6,-8.1,9.));
#715 = LINE('',#716,#717);
#716 = CARTESIAN_POINT('',(35.,-8.1,9.));
#717 = VECTOR('',#718,1.);
#718 = DIRECTION('',(-1.,2.22044604925E-16,-2.22044604925E-16));
#719 = ORIENTED_EDGE('',*,*,#720,.F.);
#720 = EDGE_CURVE('',#315,#713,#721,.T.);
#721 = LINE('',#722,#723);
#722 = CARTESIAN_POINT('',(34.6,-8.3,8.8));
#723 = VECTOR('',#724,1.);
#724 = DIRECTION('',(3.076740298214E-15,0.707106781187,0.707106781187));
#725 = PLANE('',#726);
#726 = AXIS2_PLACEMENT_3D('',#727,#728,#729);
#727 = CARTESIAN_POINT('',(35.,-8.3,8.8));
#728 = DIRECTION('',(2.501995415959E-16,0.707106781187,-0.707106781187)
  );
#729 = DIRECTION('',(-1.,1.769177925122E-16,-1.769177925122E-16));
#730 = ADVANCED_FACE('',(#731),#756,.T.);
#731 = FACE_BOUND('',#732,.T.);
#732 = EDGE_LOOP('',(#733,#734,#742,#750));
#733 = ORIENTED_EDGE('',*,*,#299,.T.);
#734 = ORIENTED_EDGE('',*,*,#735,.F.);
#735 = EDGE_CURVE('',#736,#292,#738,.T.);
#736 = VERTEX_POINT('',#737);
#737 = CARTESIAN_POINT('',(-30.4,-8.1,9.));
#738 = LINE('',#739,#740);
#739 = CARTESIAN_POINT('',(-30.4,-8.2,8.9));
#740 = VECTOR('',#741,1.);
#741 = DIRECTION('',(0.,-0.707106781187,-0.707106781187));
#742 = ORIENTED_EDGE('',*,*,#743,.F.);
#743 = EDGE_CURVE('',#744,#736,#746,.T.);
#744 = VERTEX_POINT('',#745);
#745 = CARTESIAN_POINT('',(-34.6,-8.1,9.));
#746 = LINE('',#747,#748);
#747 = CARTESIAN_POINT('',(-35.,-8.1,9.));
#748 = VECTOR('',#749,1.);
#749 = DIRECTION('',(1.,0.,0.));
#750 = ORIENTED_EDGE('',*,*,#751,.F.);
#751 = EDGE_CURVE('',#300,#744,#752,.T.);
#752 = LINE('',#753,#754);
#753 = CARTESIAN_POINT('',(-34.6,-8.3,8.8));
#754 = VECTOR('',#755,1.);
#755 = DIRECTION('',(-3.076740298214E-15,0.707106781187,0.707106781187)
  );
#756 = PLANE('',#757);
#757 = AXIS2_PLACEMENT_3D('',#758,#759,#760);
#758 = CARTESIAN_POINT('',(-35.,-8.3,8.8));
#759 = DIRECTION('',(0.,-0.707106781187,0.707106781187));
#760 = DIRECTION('',(1.,0.,0.));
#761 = ADVANCED_FACE('',(#762),#773,.T.);
#762 = FACE_BOUND('',#763,.F.);
#763 = EDGE_LOOP('',(#764,#765,#766,#772));
#764 = ORIENTED_EDGE('',*,*,#344,.T.);
#765 = ORIENTED_EDGE('',*,*,#314,.T.);
#766 = ORIENTED_EDGE('',*,*,#767,.F.);
#767 = EDGE_CURVE('',#408,#315,#768,.T.);
#768 = LINE('',#769,#770);
#769 = CARTESIAN_POINT('',(34.9,-8.2,8.6));
#770 = VECTOR('',#771,1.);
#771 = DIRECTION('',(-0.707106781187,-0.707106781187,3.172888432533E-15)
  );
#772 = ORIENTED_EDGE('',*,*,#407,.F.);
#773 = PLANE('',#774);
#774 = AXIS2_PLACEMENT_3D('',#775,#776,#777);
#775 = CARTESIAN_POINT('',(34.8,-8.3,3.552713678801E-15));
#776 = DIRECTION('',(0.707106781187,-0.707106781187,0.));
#777 = DIRECTION('',(-0.,-0.,-1.));
#778 = ADVANCED_FACE('',(#779),#790,.T.);
#779 = FACE_BOUND('',#780,.T.);
#780 = EDGE_LOOP('',(#781,#782,#788,#789));
#781 = ORIENTED_EDGE('',*,*,#392,.T.);
#782 = ORIENTED_EDGE('',*,*,#783,.F.);
#783 = EDGE_CURVE('',#480,#385,#784,.T.);
#784 = LINE('',#785,#786);
#785 = CARTESIAN_POINT('',(-34.7,8.4,8.6));
#786 = VECTOR('',#787,1.);
#787 = DIRECTION('',(-0.707106781187,-0.707106781187,1.259540559581E-14)
  );
#788 = ORIENTED_EDGE('',*,*,#479,.F.);
#789 = ORIENTED_EDGE('',*,*,#362,.T.);
#790 = PLANE('',#791);
#791 = AXIS2_PLACEMENT_3D('',#792,#793,#794);
#792 = CARTESIAN_POINT('',(-34.8,8.3,-3.552713678801E-15));
#793 = DIRECTION('',(-0.707106781187,0.707106781187,0.));
#794 = DIRECTION('',(0.,0.,1.));
#795 = ADVANCED_FACE('',(#796),#819,.T.);
#796 = FACE_BOUND('',#797,.T.);
#797 = EDGE_LOOP('',(#798,#799,#805,#813));
#798 = ORIENTED_EDGE('',*,*,#384,.T.);
#799 = ORIENTED_EDGE('',*,*,#800,.T.);
#800 = EDGE_CURVE('',#377,#744,#801,.T.);
#801 = LINE('',#802,#803);
#802 = CARTESIAN_POINT('',(-34.9,-8.1,8.7));
#803 = VECTOR('',#804,1.);
#804 = DIRECTION('',(0.707106781187,-6.249628730747E-15,0.707106781187)
  );
#805 = ORIENTED_EDGE('',*,*,#806,.F.);
#806 = EDGE_CURVE('',#807,#744,#809,.T.);
#807 = VERTEX_POINT('',#808);
#808 = CARTESIAN_POINT('',(-34.6,8.1,9.));
#809 = LINE('',#810,#811);
#810 = CARTESIAN_POINT('',(-34.6,8.5,9.));
#811 = VECTOR('',#812,1.);
#812 = DIRECTION('',(0.,-1.,0.));
#813 = ORIENTED_EDGE('',*,*,#814,.T.);
#814 = EDGE_CURVE('',#807,#385,#815,.T.);
#815 = LINE('',#816,#817);
#816 = CARTESIAN_POINT('',(-34.8,8.1,8.8));
#817 = VECTOR('',#818,1.);
#818 = DIRECTION('',(-0.707106781187,9.614813431918E-17,-0.707106781187)
  );
#819 = PLANE('',#820);
#820 = AXIS2_PLACEMENT_3D('',#821,#822,#823);
#821 = CARTESIAN_POINT('',(-34.8,8.5,8.8));
#822 = DIRECTION('',(-0.707106781187,0.,0.707106781187));
#823 = DIRECTION('',(0.,-1.,0.));
#824 = ADVANCED_FACE('',(#825),#848,.F.);
#825 = FACE_BOUND('',#826,.F.);
#826 = EDGE_LOOP('',(#827,#828,#834,#842));
#827 = ORIENTED_EDGE('',*,*,#424,.T.);
#828 = ORIENTED_EDGE('',*,*,#829,.T.);
#829 = EDGE_CURVE('',#408,#713,#830,.T.);
#830 = LINE('',#831,#832);
#831 = CARTESIAN_POINT('',(34.9,-8.1,8.7));
#832 = VECTOR('',#833,1.);
#833 = DIRECTION('',(-0.707106781187,-6.249628730747E-15,0.707106781187)
  );
#834 = ORIENTED_EDGE('',*,*,#835,.F.);
#835 = EDGE_CURVE('',#836,#713,#838,.T.);
#836 = VERTEX_POINT('',#837);
#837 = CARTESIAN_POINT('',(34.6,8.1,9.));
#838 = LINE('',#839,#840);
#839 = CARTESIAN_POINT('',(34.6,8.5,9.));
#840 = VECTOR('',#841,1.);
#841 = DIRECTION('',(-2.22044604925E-16,-1.,-2.465190328816E-32));
#842 = ORIENTED_EDGE('',*,*,#843,.F.);
#843 = EDGE_CURVE('',#417,#836,#844,.T.);
#844 = LINE('',#845,#846);
#845 = CARTESIAN_POINT('',(34.8,8.1,8.8));
#846 = VECTOR('',#847,1.);
#847 = DIRECTION('',(-0.707106781187,1.259540559581E-14,0.707106781187)
  );
#848 = PLANE('',#849);
#849 = AXIS2_PLACEMENT_3D('',#850,#851,#852);
#850 = CARTESIAN_POINT('',(34.8,8.5,8.8));
#851 = DIRECTION('',(-0.707106781187,-3.474993633276E-18,-0.707106781187
    ));
#852 = DIRECTION('',(-1.085651108998E-16,-1.,1.134794940252E-16));
#853 = ADVANCED_FACE('',(#854),#865,.T.);
#854 = FACE_BOUND('',#855,.T.);
#855 = EDGE_LOOP('',(#856,#857,#858,#864));
#856 = ORIENTED_EDGE('',*,*,#438,.F.);
#857 = ORIENTED_EDGE('',*,*,#472,.T.);
#858 = ORIENTED_EDGE('',*,*,#859,.T.);
#859 = EDGE_CURVE('',#465,#417,#860,.T.);
#860 = LINE('',#861,#862);
#861 = CARTESIAN_POINT('',(34.7,8.4,8.6));
#862 = VECTOR('',#863,1.);
#863 = DIRECTION('',(0.707106781187,-0.707106781187,0.));
#864 = ORIENTED_EDGE('',*,*,#416,.F.);
#865 = PLANE('',#866);
#866 = AXIS2_PLACEMENT_3D('',#867,#868,#869);
#867 = CARTESIAN_POINT('',(34.8,8.3,3.552713678801E-15));
#868 = DIRECTION('',(0.707106781187,0.707106781187,5.003990831917E-16));
#869 = DIRECTION('',(-3.538355850244E-16,-3.538355850244E-16,1.));
#870 = ADVANCED_FACE('',(#871),#896,.F.);
#871 = FACE_BOUND('',#872,.T.);
#872 = EDGE_LOOP('',(#873,#874,#875,#883,#889,#890));
#873 = ORIENTED_EDGE('',*,*,#454,.F.);
#874 = ORIENTED_EDGE('',*,*,#519,.T.);
#875 = ORIENTED_EDGE('',*,*,#876,.T.);
#876 = EDGE_CURVE('',#512,#877,#879,.T.);
#877 = VERTEX_POINT('',#878);
#878 = CARTESIAN_POINT('',(30.,8.1,6.));
#879 = LINE('',#880,#881);
#880 = CARTESIAN_POINT('',(30.,4.05,10.05));
#881 = VECTOR('',#882,1.);
#882 = DIRECTION('',(-3.140184917368E-16,-0.707106781187,0.707106781187)
  );
#883 = ORIENTED_EDGE('',*,*,#884,.F.);
#884 = EDGE_CURVE('',#610,#877,#885,.T.);
#885 = LINE('',#886,#887);
#886 = CARTESIAN_POINT('',(30.,-8.5,6.));
#887 = VECTOR('',#888,1.);
#888 = DIRECTION('',(2.22044604925E-16,1.,2.465190328816E-32));
#889 = ORIENTED_EDGE('',*,*,#665,.T.);
#890 = ORIENTED_EDGE('',*,*,#891,.T.);
#891 = EDGE_CURVE('',#658,#457,#892,.T.);
#892 = LINE('',#893,#894);
#893 = CARTESIAN_POINT('',(30.,-8.5,8.6));
#894 = VECTOR('',#895,1.);
#895 = DIRECTION('',(2.22044604925E-16,1.,2.465190328816E-32));
#896 = PLANE('',#897);
#897 = AXIS2_PLACEMENT_3D('',#898,#899,#900);
#898 = CARTESIAN_POINT('',(30.,-8.5,6.));
#899 = DIRECTION('',(1.,-2.22044604925E-16,2.22044604925E-16));
#900 = DIRECTION('',(-2.22044604925E-16,-1.,-2.465190328816E-32));
#901 = ADVANCED_FACE('',(#902),#925,.F.);
#902 = FACE_BOUND('',#903,.F.);
#903 = EDGE_LOOP('',(#904,#912,#913,#919));
#904 = ORIENTED_EDGE('',*,*,#905,.F.);
#905 = EDGE_CURVE('',#457,#906,#908,.T.);
#906 = VERTEX_POINT('',#907);
#907 = CARTESIAN_POINT('',(30.4,8.1,9.));
#908 = LINE('',#909,#910);
#909 = CARTESIAN_POINT('',(32.966666666667,5.533333333333,
    11.566666666667));
#910 = VECTOR('',#911,1.);
#911 = DIRECTION('',(0.57735026919,-0.57735026919,0.57735026919));
#912 = ORIENTED_EDGE('',*,*,#464,.T.);
#913 = ORIENTED_EDGE('',*,*,#914,.T.);
#914 = EDGE_CURVE('',#465,#836,#915,.T.);
#915 = LINE('',#916,#917);
#916 = CARTESIAN_POINT('',(34.6,8.4,8.7));
#917 = VECTOR('',#918,1.);
#918 = DIRECTION('',(1.259540559581E-14,-0.707106781187,0.707106781187)
  );
#919 = ORIENTED_EDGE('',*,*,#920,.F.);
#920 = EDGE_CURVE('',#906,#836,#921,.T.);
#921 = LINE('',#922,#923);
#922 = CARTESIAN_POINT('',(30.,8.1,9.));
#923 = VECTOR('',#924,1.);
#924 = DIRECTION('',(1.,-2.22044604925E-16,2.22044604925E-16));
#925 = PLANE('',#926);
#926 = AXIS2_PLACEMENT_3D('',#927,#928,#929);
#927 = CARTESIAN_POINT('',(30.,8.3,8.8));
#928 = DIRECTION('',(2.536745352291E-16,-0.707106781187,-0.707106781187)
  );
#929 = DIRECTION('',(1.,-4.266962085016E-17,4.014195889999E-16));
#930 = ADVANCED_FACE('',(#931),#949,.T.);
#931 = FACE_BOUND('',#932,.T.);
#932 = EDGE_LOOP('',(#933,#934,#935,#943));
#933 = ORIENTED_EDGE('',*,*,#876,.F.);
#934 = ORIENTED_EDGE('',*,*,#511,.T.);
#935 = ORIENTED_EDGE('',*,*,#936,.T.);
#936 = EDGE_CURVE('',#504,#937,#939,.T.);
#937 = VERTEX_POINT('',#938);
#938 = CARTESIAN_POINT('',(-29.6,8.1,6.));
#939 = LINE('',#940,#941);
#940 = CARTESIAN_POINT('',(-29.6,8.4,5.7));
#941 = VECTOR('',#942,1.);
#942 = DIRECTION('',(9.230220894641E-15,-0.707106781187,0.707106781187)
  );
#943 = ORIENTED_EDGE('',*,*,#944,.F.);
#944 = EDGE_CURVE('',#877,#937,#945,.T.);
#945 = LINE('',#946,#947);
#946 = CARTESIAN_POINT('',(30.,8.1,6.));
#947 = VECTOR('',#948,1.);
#948 = DIRECTION('',(-1.,0.,0.));
#949 = PLANE('',#950);
#950 = AXIS2_PLACEMENT_3D('',#951,#952,#953);
#951 = CARTESIAN_POINT('',(30.,8.3,5.8));
#952 = DIRECTION('',(0.,0.707106781187,0.707106781187));
#953 = DIRECTION('',(-1.,0.,0.));
#954 = ADVANCED_FACE('',(#955),#973,.T.);
#955 = FACE_BOUND('',#956,.T.);
#956 = EDGE_LOOP('',(#957,#958,#959,#967));
#957 = ORIENTED_EDGE('',*,*,#936,.F.);
#958 = ORIENTED_EDGE('',*,*,#503,.T.);
#959 = ORIENTED_EDGE('',*,*,#960,.T.);
#960 = EDGE_CURVE('',#496,#961,#963,.T.);
#961 = VERTEX_POINT('',#962);
#962 = CARTESIAN_POINT('',(-30.,8.1,6.4));
#963 = LINE('',#964,#965);
#964 = CARTESIAN_POINT('',(-30.1,8.2,6.4));
#965 = VECTOR('',#966,1.);
#966 = DIRECTION('',(0.707106781187,-0.707106781187,9.230220894641E-15)
  );
#967 = ORIENTED_EDGE('',*,*,#968,.F.);
#968 = EDGE_CURVE('',#937,#961,#969,.T.);
#969 = LINE('',#970,#971);
#970 = CARTESIAN_POINT('',(-29.6,8.1,6.));
#971 = VECTOR('',#972,1.);
#972 = DIRECTION('',(-0.707106781187,0.,0.707106781187));
#973 = PLANE('',#974);
#974 = AXIS2_PLACEMENT_3D('',#975,#976,#977);
#975 = CARTESIAN_POINT('',(-29.6,8.5,5.6));
#976 = DIRECTION('',(0.57735026919,0.57735026919,0.57735026919));
#977 = DIRECTION('',(-0.707106781187,2.775557561563E-17,0.707106781187)
  );
#978 = ADVANCED_FACE('',(#979),#997,.F.);
#979 = FACE_BOUND('',#980,.T.);
#980 = EDGE_LOOP('',(#981,#982,#983,#991));
#981 = ORIENTED_EDGE('',*,*,#960,.F.);
#982 = ORIENTED_EDGE('',*,*,#495,.T.);
#983 = ORIENTED_EDGE('',*,*,#984,.T.);
#984 = EDGE_CURVE('',#488,#985,#987,.T.);
#985 = VERTEX_POINT('',#986);
#986 = CARTESIAN_POINT('',(-30.,8.1,8.6));
#987 = LINE('',#988,#989);
#988 = CARTESIAN_POINT('',(-30.3,8.4,8.6));
#989 = VECTOR('',#990,1.);
#990 = DIRECTION('',(0.707106781187,-0.707106781187,6.249628730747E-15)
  );
#991 = ORIENTED_EDGE('',*,*,#992,.F.);
#992 = EDGE_CURVE('',#961,#985,#993,.T.);
#993 = LINE('',#994,#995);
#994 = CARTESIAN_POINT('',(-30.,8.1,6.));
#995 = VECTOR('',#996,1.);
#996 = DIRECTION('',(0.,0.,1.));
#997 = PLANE('',#998);
#998 = AXIS2_PLACEMENT_3D('',#999,#1000,#1001);
#999 = CARTESIAN_POINT('',(-30.2,8.3,6.));
#1000 = DIRECTION('',(-0.707106781187,-0.707106781187,0.));
#1001 = DIRECTION('',(-0.,-0.,-1.));
#1002 = ADVANCED_FACE('',(#1003),#1026,.T.);
#1003 = FACE_BOUND('',#1004,.T.);
#1004 = EDGE_LOOP('',(#1005,#1013,#1014,#1020));
#1005 = ORIENTED_EDGE('',*,*,#1006,.F.);
#1006 = EDGE_CURVE('',#488,#1007,#1009,.T.);
#1007 = VERTEX_POINT('',#1008);
#1008 = CARTESIAN_POINT('',(-30.4,8.1,9.));
#1009 = LINE('',#1010,#1011);
#1010 = CARTESIAN_POINT('',(-30.4,8.4,8.7));
#1011 = VECTOR('',#1012,1.);
#1012 = DIRECTION('',(3.172888432533E-15,-0.707106781187,0.707106781187)
  );
#1013 = ORIENTED_EDGE('',*,*,#487,.T.);
#1014 = ORIENTED_EDGE('',*,*,#1015,.T.);
#1015 = EDGE_CURVE('',#480,#807,#1016,.T.);
#1016 = LINE('',#1017,#1018);
#1017 = CARTESIAN_POINT('',(-34.6,8.4,8.7));
#1018 = VECTOR('',#1019,1.);
#1019 = DIRECTION('',(-1.249925746149E-14,-0.707106781187,0.707106781187
    ));
#1020 = ORIENTED_EDGE('',*,*,#1021,.F.);
#1021 = EDGE_CURVE('',#1007,#807,#1022,.T.);
#1022 = LINE('',#1023,#1024);
#1023 = CARTESIAN_POINT('',(-30.,8.1,9.));
#1024 = VECTOR('',#1025,1.);
#1025 = DIRECTION('',(-1.,0.,0.));
#1026 = PLANE('',#1027);
#1027 = AXIS2_PLACEMENT_3D('',#1028,#1029,#1030);
#1028 = CARTESIAN_POINT('',(-30.,8.3,8.8));
#1029 = DIRECTION('',(0.,0.707106781187,0.707106781187));
#1030 = DIRECTION('',(-1.,0.,0.));
#1031 = ADVANCED_FACE('',(#1032,#1043,#1046),#1049,.T.);
#1032 = FACE_BOUND('',#1033,.T.);
#1033 = EDGE_LOOP('',(#1034,#1035,#1036,#1042));
#1034 = ORIENTED_EDGE('',*,*,#884,.T.);
#1035 = ORIENTED_EDGE('',*,*,#944,.T.);
#1036 = ORIENTED_EDGE('',*,*,#1037,.F.);
#1037 = EDGE_CURVE('',#601,#937,#1038,.T.);
#1038 = LINE('',#1039,#1040);
#1039 = CARTESIAN_POINT('',(-29.6,-8.5,6.));
#1040 = VECTOR('',#1041,1.);
#1041 = DIRECTION('',(0.,1.,0.));
#1042 = ORIENTED_EDGE('',*,*,#617,.T.);
#1043 = FACE_BOUND('',#1044,.T.);
#1044 = EDGE_LOOP('',(#1045));
#1045 = ORIENTED_EDGE('',*,*,#543,.T.);
#1046 = FACE_BOUND('',#1047,.T.);
#1047 = EDGE_LOOP('',(#1048));
#1048 = ORIENTED_EDGE('',*,*,#568,.T.);
#1049 = PLANE('',#1050);
#1050 = AXIS2_PLACEMENT_3D('',#1051,#1052,#1053);
#1051 = CARTESIAN_POINT('',(0.,0.,6.));
#1052 = DIRECTION('',(0.,0.,1.));
#1053 = DIRECTION('',(1.,0.,0.));
#1054 = ADVANCED_FACE('',(#1055),#1060,.F.);
#1055 = FACE_BOUND('',#1056,.F.);
#1056 = EDGE_LOOP('',(#1057,#1058,#1059));
#1057 = ORIENTED_EDGE('',*,*,#584,.F.);
#1058 = ORIENTED_EDGE('',*,*,#800,.T.);
#1059 = ORIENTED_EDGE('',*,*,#751,.F.);
#1060 = PLANE('',#1061);
#1061 = AXIS2_PLACEMENT_3D('',#1062,#1063,#1064);
#1062 = CARTESIAN_POINT('',(-35.,-8.1,8.6));
#1063 = DIRECTION('',(0.57735026919,0.57735026919,-0.57735026919));
#1064 = DIRECTION('',(0.,0.707106781187,0.707106781187));
#1065 = ADVANCED_FACE('',(#1066),#1077,.T.);
#1066 = FACE_BOUND('',#1067,.F.);
#1067 = EDGE_LOOP('',(#1068,#1074,#1075,#1076));
#1068 = ORIENTED_EDGE('',*,*,#1069,.T.);
#1069 = EDGE_CURVE('',#634,#961,#1070,.T.);
#1070 = LINE('',#1071,#1072);
#1071 = CARTESIAN_POINT('',(-30.,-8.5,6.4));
#1072 = VECTOR('',#1073,1.);
#1073 = DIRECTION('',(0.,1.,0.));
#1074 = ORIENTED_EDGE('',*,*,#968,.F.);
#1075 = ORIENTED_EDGE('',*,*,#1037,.F.);
#1076 = ORIENTED_EDGE('',*,*,#641,.T.);
#1077 = PLANE('',#1078);
#1078 = AXIS2_PLACEMENT_3D('',#1079,#1080,#1081);
#1079 = CARTESIAN_POINT('',(-29.8,-8.5,6.2));
#1080 = DIRECTION('',(0.707106781187,0.,0.707106781187));
#1081 = DIRECTION('',(-0.,-1.,-0.));
#1082 = ADVANCED_FACE('',(#1083),#1093,.T.);
#1083 = FACE_BOUND('',#1084,.T.);
#1084 = EDGE_LOOP('',(#1085,#1091,#1092));
#1085 = ORIENTED_EDGE('',*,*,#1086,.F.);
#1086 = EDGE_CURVE('',#658,#705,#1087,.T.);
#1087 = LINE('',#1088,#1089);
#1088 = CARTESIAN_POINT('',(30.1,-8.1,8.7));
#1089 = VECTOR('',#1090,1.);
#1090 = DIRECTION('',(0.707106781187,3.076740298214E-15,0.707106781187)
  );
#1091 = ORIENTED_EDGE('',*,*,#657,.T.);
#1092 = ORIENTED_EDGE('',*,*,#704,.F.);
#1093 = PLANE('',#1094);
#1094 = AXIS2_PLACEMENT_3D('',#1095,#1096,#1097);
#1095 = CARTESIAN_POINT('',(30.,-8.1,8.6));
#1096 = DIRECTION('',(-0.57735026919,-0.57735026919,0.57735026919));
#1097 = DIRECTION('',(-6.217248937901E-15,-0.707106781187,
    -0.707106781187));
#1098 = ADVANCED_FACE('',(#1099),#1110,.F.);
#1099 = FACE_BOUND('',#1100,.F.);
#1100 = EDGE_LOOP('',(#1101,#1102,#1108,#1109));
#1101 = ORIENTED_EDGE('',*,*,#689,.T.);
#1102 = ORIENTED_EDGE('',*,*,#1103,.T.);
#1103 = EDGE_CURVE('',#682,#985,#1104,.T.);
#1104 = LINE('',#1105,#1106);
#1105 = CARTESIAN_POINT('',(-30.,-8.5,8.6));
#1106 = VECTOR('',#1107,1.);
#1107 = DIRECTION('',(0.,1.,0.));
#1108 = ORIENTED_EDGE('',*,*,#992,.F.);
#1109 = ORIENTED_EDGE('',*,*,#1069,.F.);
#1110 = PLANE('',#1111);
#1111 = AXIS2_PLACEMENT_3D('',#1112,#1113,#1114);
#1112 = CARTESIAN_POINT('',(-30.,-8.5,6.));
#1113 = DIRECTION('',(-1.,0.,0.));
#1114 = DIRECTION('',(0.,1.,0.));
#1115 = ADVANCED_FACE('',(#1116),#1126,.F.);
#1116 = FACE_BOUND('',#1117,.F.);
#1117 = EDGE_LOOP('',(#1118,#1119,#1125));
#1118 = ORIENTED_EDGE('',*,*,#735,.F.);
#1119 = ORIENTED_EDGE('',*,*,#1120,.T.);
#1120 = EDGE_CURVE('',#736,#682,#1121,.T.);
#1121 = LINE('',#1122,#1123);
#1122 = CARTESIAN_POINT('',(-30.3,-8.1,8.9));
#1123 = VECTOR('',#1124,1.);
#1124 = DIRECTION('',(0.707106781187,-6.345776865066E-15,-0.707106781187
    ));
#1125 = ORIENTED_EDGE('',*,*,#681,.F.);
#1126 = PLANE('',#1127);
#1127 = AXIS2_PLACEMENT_3D('',#1128,#1129,#1130);
#1128 = CARTESIAN_POINT('',(-30.4,-8.1,9.));
#1129 = DIRECTION('',(-0.57735026919,0.57735026919,-0.57735026919));
#1130 = DIRECTION('',(0.707106781187,0.707106781187,3.191891195797E-15)
  );
#1131 = ADVANCED_FACE('',(#1132),#1137,.T.);
#1132 = FACE_BOUND('',#1133,.T.);
#1133 = EDGE_LOOP('',(#1134,#1135,#1136));
#1134 = ORIENTED_EDGE('',*,*,#767,.F.);
#1135 = ORIENTED_EDGE('',*,*,#829,.T.);
#1136 = ORIENTED_EDGE('',*,*,#720,.F.);
#1137 = PLANE('',#1138);
#1138 = AXIS2_PLACEMENT_3D('',#1139,#1140,#1141);
#1139 = CARTESIAN_POINT('',(35.,-8.1,8.6));
#1140 = DIRECTION('',(0.57735026919,-0.57735026919,0.57735026919));
#1141 = DIRECTION('',(0.,0.707106781187,0.707106781187));
#1142 = ADVANCED_FACE('',(#1143,#1154,#1165),#1176,.T.);
#1143 = FACE_BOUND('',#1144,.F.);
#1144 = EDGE_LOOP('',(#1145,#1146,#1152,#1153));
#1145 = ORIENTED_EDGE('',*,*,#712,.T.);
#1146 = ORIENTED_EDGE('',*,*,#1147,.T.);
#1147 = EDGE_CURVE('',#705,#906,#1148,.T.);
#1148 = LINE('',#1149,#1150);
#1149 = CARTESIAN_POINT('',(30.4,-8.5,9.));
#1150 = VECTOR('',#1151,1.);
#1151 = DIRECTION('',(2.22044604925E-16,1.,2.465190328816E-32));
#1152 = ORIENTED_EDGE('',*,*,#920,.T.);
#1153 = ORIENTED_EDGE('',*,*,#835,.T.);
#1154 = FACE_BOUND('',#1155,.F.);
#1155 = EDGE_LOOP('',(#1156));
#1156 = ORIENTED_EDGE('',*,*,#1157,.F.);
#1157 = EDGE_CURVE('',#1158,#1158,#1160,.T.);
#1158 = VERTEX_POINT('',#1159);
#1159 = CARTESIAN_POINT('',(32.,6.5,9.));
#1160 = CIRCLE('',#1161,1.);
#1161 = AXIS2_PLACEMENT_3D('',#1162,#1163,#1164);
#1162 = CARTESIAN_POINT('',(33.,6.5,9.));
#1163 = DIRECTION('',(2.22044604925E-16,-2.465190328816E-32,-1.));
#1164 = DIRECTION('',(-1.,-5.473822126269E-48,-2.22044604925E-16));
#1165 = FACE_BOUND('',#1166,.F.);
#1166 = EDGE_LOOP('',(#1167));
#1167 = ORIENTED_EDGE('',*,*,#1168,.F.);
#1168 = EDGE_CURVE('',#1169,#1169,#1171,.T.);
#1169 = VERTEX_POINT('',#1170);
#1170 = CARTESIAN_POINT('',(32.,-6.5,9.));
#1171 = CIRCLE('',#1172,1.);
#1172 = AXIS2_PLACEMENT_3D('',#1173,#1174,#1175);
#1173 = CARTESIAN_POINT('',(33.,-6.5,9.));
#1174 = DIRECTION('',(2.22044604925E-16,-2.465190328816E-32,-1.));
#1175 = DIRECTION('',(-1.,-5.473822126269E-48,-2.22044604925E-16));
#1176 = PLANE('',#1177);
#1177 = AXIS2_PLACEMENT_3D('',#1178,#1179,#1180);
#1178 = CARTESIAN_POINT('',(32.5,-7.216449660064E-15,9.));
#1179 = DIRECTION('',(-2.22044604925E-16,2.465190328816E-32,1.));
#1180 = DIRECTION('',(1.,-2.22044604925E-16,2.22044604925E-16));
#1181 = ADVANCED_FACE('',(#1182,#1193,#1204),#1215,.T.);
#1182 = FACE_BOUND('',#1183,.T.);
#1183 = EDGE_LOOP('',(#1184,#1185,#1191,#1192));
#1184 = ORIENTED_EDGE('',*,*,#743,.T.);
#1185 = ORIENTED_EDGE('',*,*,#1186,.T.);
#1186 = EDGE_CURVE('',#736,#1007,#1187,.T.);
#1187 = LINE('',#1188,#1189);
#1188 = CARTESIAN_POINT('',(-30.4,-8.5,9.));
#1189 = VECTOR('',#1190,1.);
#1190 = DIRECTION('',(0.,1.,0.));
#1191 = ORIENTED_EDGE('',*,*,#1021,.T.);
#1192 = ORIENTED_EDGE('',*,*,#806,.T.);
#1193 = FACE_BOUND('',#1194,.T.);
#1194 = EDGE_LOOP('',(#1195));
#1195 = ORIENTED_EDGE('',*,*,#1196,.F.);
#1196 = EDGE_CURVE('',#1197,#1197,#1199,.T.);
#1197 = VERTEX_POINT('',#1198);
#1198 = CARTESIAN_POINT('',(-32.,6.5,9.));
#1199 = CIRCLE('',#1200,1.);
#1200 = AXIS2_PLACEMENT_3D('',#1201,#1202,#1203);
#1201 = CARTESIAN_POINT('',(-33.,6.5,9.));
#1202 = DIRECTION('',(0.,0.,1.));
#1203 = DIRECTION('',(1.,0.,0.));
#1204 = FACE_BOUND('',#1205,.T.);
#1205 = EDGE_LOOP('',(#1206));
#1206 = ORIENTED_EDGE('',*,*,#1207,.F.);
#1207 = EDGE_CURVE('',#1208,#1208,#1210,.T.);
#1208 = VERTEX_POINT('',#1209);
#1209 = CARTESIAN_POINT('',(-32.,-6.5,9.));
#1210 = CIRCLE('',#1211,1.);
#1211 = AXIS2_PLACEMENT_3D('',#1212,#1213,#1214);
#1212 = CARTESIAN_POINT('',(-33.,-6.5,9.));
#1213 = DIRECTION('',(0.,0.,1.));
#1214 = DIRECTION('',(1.,0.,0.));
#1215 = PLANE('',#1216);
#1216 = AXIS2_PLACEMENT_3D('',#1217,#1218,#1219);
#1217 = CARTESIAN_POINT('',(-32.5,0.,9.));
#1218 = DIRECTION('',(0.,0.,1.));
#1219 = DIRECTION('',(1.,0.,0.));
#1220 = ADVANCED_FACE('',(#1221),#1226,.T.);
#1221 = FACE_BOUND('',#1222,.T.);
#1222 = EDGE_LOOP('',(#1223,#1224,#1225));
#1223 = ORIENTED_EDGE('',*,*,#1015,.F.);
#1224 = ORIENTED_EDGE('',*,*,#783,.T.);
#1225 = ORIENTED_EDGE('',*,*,#814,.F.);
#1226 = PLANE('',#1227);
#1227 = AXIS2_PLACEMENT_3D('',#1228,#1229,#1230);
#1228 = CARTESIAN_POINT('',(-34.6,8.5,8.6));
#1229 = DIRECTION('',(-0.57735026919,0.57735026919,0.57735026919));
#1230 = DIRECTION('',(-0.707106781187,6.272760089132E-15,-0.707106781187
    ));
#1231 = ADVANCED_FACE('',(#1232),#1237,.T.);
#1232 = FACE_BOUND('',#1233,.T.);
#1233 = EDGE_LOOP('',(#1234,#1235,#1236));
#1234 = ORIENTED_EDGE('',*,*,#859,.F.);
#1235 = ORIENTED_EDGE('',*,*,#914,.T.);
#1236 = ORIENTED_EDGE('',*,*,#843,.F.);
#1237 = PLANE('',#1238);
#1238 = AXIS2_PLACEMENT_3D('',#1239,#1240,#1241);
#1239 = CARTESIAN_POINT('',(34.6,8.5,8.6));
#1240 = DIRECTION('',(0.57735026919,0.57735026919,0.57735026919));
#1241 = DIRECTION('',(-0.707106781187,3.164135620182E-15,0.707106781187)
  );
#1242 = ADVANCED_FACE('',(#1243),#1249,.F.);
#1243 = FACE_BOUND('',#1244,.F.);
#1244 = EDGE_LOOP('',(#1245,#1246,#1247,#1248));
#1245 = ORIENTED_EDGE('',*,*,#1086,.F.);
#1246 = ORIENTED_EDGE('',*,*,#891,.T.);
#1247 = ORIENTED_EDGE('',*,*,#905,.T.);
#1248 = ORIENTED_EDGE('',*,*,#1147,.F.);
#1249 = PLANE('',#1250);
#1250 = AXIS2_PLACEMENT_3D('',#1251,#1252,#1253);
#1251 = CARTESIAN_POINT('',(30.2,-8.5,8.8));
#1252 = DIRECTION('',(0.707106781187,-2.501995415959E-16,-0.707106781187
    ));
#1253 = DIRECTION('',(2.879400949747E-16,1.,-6.589549004969E-17));
#1254 = ADVANCED_FACE('',(#1255),#1265,.F.);
#1255 = FACE_BOUND('',#1256,.F.);
#1256 = EDGE_LOOP('',(#1257,#1258,#1259));
#1257 = ORIENTED_EDGE('',*,*,#1006,.F.);
#1258 = ORIENTED_EDGE('',*,*,#984,.T.);
#1259 = ORIENTED_EDGE('',*,*,#1260,.F.);
#1260 = EDGE_CURVE('',#1007,#985,#1261,.T.);
#1261 = LINE('',#1262,#1263);
#1262 = CARTESIAN_POINT('',(-30.2,8.1,8.8));
#1263 = VECTOR('',#1264,1.);
#1264 = DIRECTION('',(0.707106781187,3.076740298214E-15,-0.707106781187)
  );
#1265 = PLANE('',#1266);
#1266 = AXIS2_PLACEMENT_3D('',#1267,#1268,#1269);
#1267 = CARTESIAN_POINT('',(-30.4,8.5,8.6));
#1268 = DIRECTION('',(-0.57735026919,-0.57735026919,-0.57735026919));
#1269 = DIRECTION('',(0.707106781187,0.,-0.707106781187));
#1270 = ADVANCED_FACE('',(#1271),#1277,.F.);
#1271 = FACE_BOUND('',#1272,.F.);
#1272 = EDGE_LOOP('',(#1273,#1274,#1275,#1276));
#1273 = ORIENTED_EDGE('',*,*,#1120,.F.);
#1274 = ORIENTED_EDGE('',*,*,#1186,.T.);
#1275 = ORIENTED_EDGE('',*,*,#1260,.T.);
#1276 = ORIENTED_EDGE('',*,*,#1103,.F.);
#1277 = PLANE('',#1278);
#1278 = AXIS2_PLACEMENT_3D('',#1279,#1280,#1281);
#1279 = CARTESIAN_POINT('',(-30.2,-8.5,8.8));
#1280 = DIRECTION('',(-0.707106781187,0.,-0.707106781187));
#1281 = DIRECTION('',(0.,1.,0.));
#1282 = ADVANCED_FACE('',(#1283),#1302,.F.);
#1283 = FACE_BOUND('',#1284,.F.);
#1284 = EDGE_LOOP('',(#1285,#1293,#1294,#1295));
#1285 = ORIENTED_EDGE('',*,*,#1286,.F.);
#1286 = EDGE_CURVE('',#1158,#1287,#1289,.T.);
#1287 = VERTEX_POINT('',#1288);
#1288 = CARTESIAN_POINT('',(32.4,6.5,8.6));
#1289 = LINE('',#1290,#1291);
#1290 = CARTESIAN_POINT('',(32.4,6.5,8.6));
#1291 = VECTOR('',#1292,1.);
#1292 = DIRECTION('',(0.707106781187,-1.743152798421E-32,-0.707106781187
    ));
#1293 = ORIENTED_EDGE('',*,*,#1157,.T.);
#1294 = ORIENTED_EDGE('',*,*,#1286,.T.);
#1295 = ORIENTED_EDGE('',*,*,#1296,.F.);
#1296 = EDGE_CURVE('',#1287,#1287,#1297,.T.);
#1297 = CIRCLE('',#1298,0.6);
#1298 = AXIS2_PLACEMENT_3D('',#1299,#1300,#1301);
#1299 = CARTESIAN_POINT('',(33.,6.5,8.6));
#1300 = DIRECTION('',(2.22044604925E-16,-2.465190328816E-32,-1.));
#1301 = DIRECTION('',(-1.,-5.473822126269E-48,-2.22044604925E-16));
#1302 = CONICAL_SURFACE('',#1303,0.6,0.785398163397);
#1303 = AXIS2_PLACEMENT_3D('',#1304,#1305,#1306);
#1304 = CARTESIAN_POINT('',(33.,6.5,8.6));
#1305 = DIRECTION('',(-2.22044604925E-16,2.465190328816E-32,1.));
#1306 = DIRECTION('',(-1.,-5.473822126269E-48,-2.22044604925E-16));
#1307 = ADVANCED_FACE('',(#1308),#1327,.F.);
#1308 = FACE_BOUND('',#1309,.F.);
#1309 = EDGE_LOOP('',(#1310,#1318,#1319,#1320));
#1310 = ORIENTED_EDGE('',*,*,#1311,.F.);
#1311 = EDGE_CURVE('',#1169,#1312,#1314,.T.);
#1312 = VERTEX_POINT('',#1313);
#1313 = CARTESIAN_POINT('',(32.4,-6.5,8.6));
#1314 = LINE('',#1315,#1316);
#1315 = CARTESIAN_POINT('',(32.4,-6.5,8.6));
#1316 = VECTOR('',#1317,1.);
#1317 = DIRECTION('',(0.707106781187,-1.743152798421E-32,-0.707106781187
    ));
#1318 = ORIENTED_EDGE('',*,*,#1168,.T.);
#1319 = ORIENTED_EDGE('',*,*,#1311,.T.);
#1320 = ORIENTED_EDGE('',*,*,#1321,.F.);
#1321 = EDGE_CURVE('',#1312,#1312,#1322,.T.);
#1322 = CIRCLE('',#1323,0.6);
#1323 = AXIS2_PLACEMENT_3D('',#1324,#1325,#1326);
#1324 = CARTESIAN_POINT('',(33.,-6.5,8.6));
#1325 = DIRECTION('',(2.22044604925E-16,-2.465190328816E-32,-1.));
#1326 = DIRECTION('',(-1.,-5.473822126269E-48,-2.22044604925E-16));
#1327 = CONICAL_SURFACE('',#1328,0.6,0.785398163397);
#1328 = AXIS2_PLACEMENT_3D('',#1329,#1330,#1331);
#1329 = CARTESIAN_POINT('',(33.,-6.5,8.6));
#1330 = DIRECTION('',(-2.22044604925E-16,2.465190328816E-32,1.));
#1331 = DIRECTION('',(-1.,-5.473822126269E-48,-2.22044604925E-16));
#1332 = ADVANCED_FACE('',(#1333),#1352,.F.);
#1333 = FACE_BOUND('',#1334,.T.);
#1334 = EDGE_LOOP('',(#1335,#1343,#1344,#1345));
#1335 = ORIENTED_EDGE('',*,*,#1336,.F.);
#1336 = EDGE_CURVE('',#1197,#1337,#1339,.T.);
#1337 = VERTEX_POINT('',#1338);
#1338 = CARTESIAN_POINT('',(-32.4,6.5,8.6));
#1339 = LINE('',#1340,#1341);
#1340 = CARTESIAN_POINT('',(-32.4,6.5,8.6));
#1341 = VECTOR('',#1342,1.);
#1342 = DIRECTION('',(-0.707106781187,-0.,-0.707106781187));
#1343 = ORIENTED_EDGE('',*,*,#1196,.T.);
#1344 = ORIENTED_EDGE('',*,*,#1336,.T.);
#1345 = ORIENTED_EDGE('',*,*,#1346,.F.);
#1346 = EDGE_CURVE('',#1337,#1337,#1347,.T.);
#1347 = CIRCLE('',#1348,0.6);
#1348 = AXIS2_PLACEMENT_3D('',#1349,#1350,#1351);
#1349 = CARTESIAN_POINT('',(-33.,6.5,8.6));
#1350 = DIRECTION('',(0.,0.,1.));
#1351 = DIRECTION('',(1.,0.,0.));
#1352 = CONICAL_SURFACE('',#1353,0.6,0.785398163397);
#1353 = AXIS2_PLACEMENT_3D('',#1354,#1355,#1356);
#1354 = CARTESIAN_POINT('',(-33.,6.5,8.6));
#1355 = DIRECTION('',(0.,0.,1.));
#1356 = DIRECTION('',(1.,0.,0.));
#1357 = ADVANCED_FACE('',(#1358),#1377,.F.);
#1358 = FACE_BOUND('',#1359,.T.);
#1359 = EDGE_LOOP('',(#1360,#1368,#1369,#1370));
#1360 = ORIENTED_EDGE('',*,*,#1361,.F.);
#1361 = EDGE_CURVE('',#1208,#1362,#1364,.T.);
#1362 = VERTEX_POINT('',#1363);
#1363 = CARTESIAN_POINT('',(-32.4,-6.5,8.6));
#1364 = LINE('',#1365,#1366);
#1365 = CARTESIAN_POINT('',(-32.4,-6.5,8.6));
#1366 = VECTOR('',#1367,1.);
#1367 = DIRECTION('',(-0.707106781187,-0.,-0.707106781187));
#1368 = ORIENTED_EDGE('',*,*,#1207,.T.);
#1369 = ORIENTED_EDGE('',*,*,#1361,.T.);
#1370 = ORIENTED_EDGE('',*,*,#1371,.F.);
#1371 = EDGE_CURVE('',#1362,#1362,#1372,.T.);
#1372 = CIRCLE('',#1373,0.6);
#1373 = AXIS2_PLACEMENT_3D('',#1374,#1375,#1376);
#1374 = CARTESIAN_POINT('',(-33.,-6.5,8.6));
#1375 = DIRECTION('',(0.,0.,1.));
#1376 = DIRECTION('',(1.,0.,0.));
#1377 = CONICAL_SURFACE('',#1378,0.6,0.785398163397);
#1378 = AXIS2_PLACEMENT_3D('',#1379,#1380,#1381);
#1379 = CARTESIAN_POINT('',(-33.,-6.5,8.6));
#1380 = DIRECTION('',(0.,0.,1.));
#1381 = DIRECTION('',(1.,0.,0.));
#1382 = ADVANCED_FACE('',(#1383),#1402,.F.);
#1383 = FACE_BOUND('',#1384,.T.);
#1384 = EDGE_LOOP('',(#1385,#1393,#1394,#1395));
#1385 = ORIENTED_EDGE('',*,*,#1386,.F.);
#1386 = EDGE_CURVE('',#1287,#1387,#1389,.T.);
#1387 = VERTEX_POINT('',#1388);
#1388 = CARTESIAN_POINT('',(32.4,6.5,6.));
#1389 = LINE('',#1390,#1391);
#1390 = CARTESIAN_POINT('',(32.4,6.5,9.));
#1391 = VECTOR('',#1392,1.);
#1392 = DIRECTION('',(2.22044604925E-16,-2.465190328816E-32,-1.));
#1393 = ORIENTED_EDGE('',*,*,#1296,.F.);
#1394 = ORIENTED_EDGE('',*,*,#1386,.T.);
#1395 = ORIENTED_EDGE('',*,*,#1396,.F.);
#1396 = EDGE_CURVE('',#1387,#1387,#1397,.T.);
#1397 = CIRCLE('',#1398,0.6);
#1398 = AXIS2_PLACEMENT_3D('',#1399,#1400,#1401);
#1399 = CARTESIAN_POINT('',(33.,6.5,6.));
#1400 = DIRECTION('',(-2.22044604925E-16,2.465190328816E-32,1.));
#1401 = DIRECTION('',(-1.,2.22044604925E-16,-2.22044604925E-16));
#1402 = CYLINDRICAL_SURFACE('',#1403,0.6);
#1403 = AXIS2_PLACEMENT_3D('',#1404,#1405,#1406);
#1404 = CARTESIAN_POINT('',(33.,6.5,9.));
#1405 = DIRECTION('',(-2.22044604925E-16,2.465190328816E-32,1.));
#1406 = DIRECTION('',(-1.,2.22044604925E-16,-2.22044604925E-16));
#1407 = ADVANCED_FACE('',(#1408),#1427,.F.);
#1408 = FACE_BOUND('',#1409,.T.);
#1409 = EDGE_LOOP('',(#1410,#1418,#1419,#1420));
#1410 = ORIENTED_EDGE('',*,*,#1411,.F.);
#1411 = EDGE_CURVE('',#1312,#1412,#1414,.T.);
#1412 = VERTEX_POINT('',#1413);
#1413 = CARTESIAN_POINT('',(32.4,-6.5,6.));
#1414 = LINE('',#1415,#1416);
#1415 = CARTESIAN_POINT('',(32.4,-6.5,9.));
#1416 = VECTOR('',#1417,1.);
#1417 = DIRECTION('',(2.22044604925E-16,-2.465190328816E-32,-1.));
#1418 = ORIENTED_EDGE('',*,*,#1321,.F.);
#1419 = ORIENTED_EDGE('',*,*,#1411,.T.);
#1420 = ORIENTED_EDGE('',*,*,#1421,.F.);
#1421 = EDGE_CURVE('',#1412,#1412,#1422,.T.);
#1422 = CIRCLE('',#1423,0.6);
#1423 = AXIS2_PLACEMENT_3D('',#1424,#1425,#1426);
#1424 = CARTESIAN_POINT('',(33.,-6.5,6.));
#1425 = DIRECTION('',(-2.22044604925E-16,2.465190328816E-32,1.));
#1426 = DIRECTION('',(-1.,2.22044604925E-16,-2.22044604925E-16));
#1427 = CYLINDRICAL_SURFACE('',#1428,0.6);
#1428 = AXIS2_PLACEMENT_3D('',#1429,#1430,#1431);
#1429 = CARTESIAN_POINT('',(33.,-6.5,9.));
#1430 = DIRECTION('',(-2.22044604925E-16,2.465190328816E-32,1.));
#1431 = DIRECTION('',(-1.,2.22044604925E-16,-2.22044604925E-16));
#1432 = ADVANCED_FACE('',(#1433),#1452,.F.);
#1433 = FACE_BOUND('',#1434,.F.);
#1434 = EDGE_LOOP('',(#1435,#1443,#1444,#1445));
#1435 = ORIENTED_EDGE('',*,*,#1436,.F.);
#1436 = EDGE_CURVE('',#1337,#1437,#1439,.T.);
#1437 = VERTEX_POINT('',#1438);
#1438 = CARTESIAN_POINT('',(-32.4,6.5,6.));
#1439 = LINE('',#1440,#1441);
#1440 = CARTESIAN_POINT('',(-32.4,6.5,9.));
#1441 = VECTOR('',#1442,1.);
#1442 = DIRECTION('',(-0.,-0.,-1.));
#1443 = ORIENTED_EDGE('',*,*,#1346,.F.);
#1444 = ORIENTED_EDGE('',*,*,#1436,.T.);
#1445 = ORIENTED_EDGE('',*,*,#1446,.T.);
#1446 = EDGE_CURVE('',#1437,#1437,#1447,.T.);
#1447 = CIRCLE('',#1448,0.6);
#1448 = AXIS2_PLACEMENT_3D('',#1449,#1450,#1451);
#1449 = CARTESIAN_POINT('',(-33.,6.5,6.));
#1450 = DIRECTION('',(0.,0.,1.));
#1451 = DIRECTION('',(1.,0.,0.));
#1452 = CYLINDRICAL_SURFACE('',#1453,0.6);
#1453 = AXIS2_PLACEMENT_3D('',#1454,#1455,#1456);
#1454 = CARTESIAN_POINT('',(-33.,6.5,9.));
#1455 = DIRECTION('',(0.,0.,1.));
#1456 = DIRECTION('',(1.,0.,0.));
#1457 = ADVANCED_FACE('',(#1458),#1477,.F.);
#1458 = FACE_BOUND('',#1459,.F.);
#1459 = EDGE_LOOP('',(#1460,#1468,#1469,#1470));
#1460 = ORIENTED_EDGE('',*,*,#1461,.F.);
#1461 = EDGE_CURVE('',#1362,#1462,#1464,.T.);
#1462 = VERTEX_POINT('',#1463);
#1463 = CARTESIAN_POINT('',(-32.4,-6.5,6.));
#1464 = LINE('',#1465,#1466);
#1465 = CARTESIAN_POINT('',(-32.4,-6.5,9.));
#1466 = VECTOR('',#1467,1.);
#1467 = DIRECTION('',(-0.,-0.,-1.));
#1468 = ORIENTED_EDGE('',*,*,#1371,.F.);
#1469 = ORIENTED_EDGE('',*,*,#1461,.T.);
#1470 = ORIENTED_EDGE('',*,*,#1471,.T.);
#1471 = EDGE_CURVE('',#1462,#1462,#1472,.T.);
#1472 = CIRCLE('',#1473,0.6);
#1473 = AXIS2_PLACEMENT_3D('',#1474,#1475,#1476);
#1474 = CARTESIAN_POINT('',(-33.,-6.5,6.));
#1475 = DIRECTION('',(0.,0.,1.));
#1476 = DIRECTION('',(1.,0.,0.));
#1477 = CYLINDRICAL_SURFACE('',#1478,0.6);
#1478 = AXIS2_PLACEMENT_3D('',#1479,#1480,#1481);
#1479 = CARTESIAN_POINT('',(-33.,-6.5,9.));
#1480 = DIRECTION('',(0.,0.,1.));
#1481 = DIRECTION('',(1.,0.,0.));
#1482 = ADVANCED_FACE('',(#1483),#1486,.T.);
#1483 = FACE_BOUND('',#1484,.T.);
#1484 = EDGE_LOOP('',(#1485));
#1485 = ORIENTED_EDGE('',*,*,#1396,.T.);
#1486 = PLANE('',#1487);
#1487 = AXIS2_PLACEMENT_3D('',#1488,#1489,#1490);
#1488 = CARTESIAN_POINT('',(0.,0.,6.));
#1489 = DIRECTION('',(0.,0.,1.));
#1490 = DIRECTION('',(1.,0.,0.));
#1491 = ADVANCED_FACE('',(#1492),#1495,.T.);
#1492 = FACE_BOUND('',#1493,.T.);
#1493 = EDGE_LOOP('',(#1494));
#1494 = ORIENTED_EDGE('',*,*,#1421,.T.);
#1495 = PLANE('',#1496);
#1496 = AXIS2_PLACEMENT_3D('',#1497,#1498,#1499);
#1497 = CARTESIAN_POINT('',(0.,0.,6.));
#1498 = DIRECTION('',(0.,0.,1.));
#1499 = DIRECTION('',(1.,0.,0.));
#1500 = ADVANCED_FACE('',(#1501),#1504,.T.);
#1501 = FACE_BOUND('',#1502,.F.);
#1502 = EDGE_LOOP('',(#1503));
#1503 = ORIENTED_EDGE('',*,*,#1446,.F.);
#1504 = PLANE('',#1505);
#1505 = AXIS2_PLACEMENT_3D('',#1506,#1507,#1508);
#1506 = CARTESIAN_POINT('',(-1.33226762955E-15,1.479114197289E-31,6.));
#1507 = DIRECTION('',(-2.22044604925E-16,2.465190328816E-32,1.));
#1508 = DIRECTION('',(1.,-2.22044604925E-16,2.22044604925E-16));
#1509 = ADVANCED_FACE('',(#1510),#1513,.T.);
#1510 = FACE_BOUND('',#1511,.F.);
#1511 = EDGE_LOOP('',(#1512));
#1512 = ORIENTED_EDGE('',*,*,#1471,.F.);
#1513 = PLANE('',#1514);
#1514 = AXIS2_PLACEMENT_3D('',#1515,#1516,#1517);
#1515 = CARTESIAN_POINT('',(-1.33226762955E-15,1.479114197289E-31,6.));
#1516 = DIRECTION('',(-2.22044604925E-16,2.465190328816E-32,1.));
#1517 = DIRECTION('',(1.,-2.22044604925E-16,2.22044604925E-16));
#1518 = ( GEOMETRIC_REPRESENTATION_CONTEXT(3) 
GLOBAL_UNCERTAINTY_ASSIGNED_CONTEXT((#1522)) 
GLOBAL_UNIT_ASSIGNED_CONTEXT((#1519,#1520,#1521)) REPRESENTATION_CONTEXT
('Context #1','3D Context with UNIT and UNCERTAINTY') );
#1519 = ( LENGTH_UNIT() NAMED_UNIT(*) SI_UNIT(.MILLI.,.METRE.) );
#1520 = ( NAMED_UNIT(*) PLANE_ANGLE_UNIT() SI_UNIT($,.RADIAN.) );
#1521 = ( NAMED_UNIT(*) SI_UNIT($,.STERADIAN.) SOLID_ANGLE_UNIT() );
#1522 = UNCERTAINTY_MEASURE_WITH_UNIT(LENGTH_MEASURE(1.E-07),#1519,
  'distance_accuracy_value','confusion accuracy');
#1523 = PRODUCT_RELATED_PRODUCT_CATEGORY('part',$,(#7));
#1524 = MECHANICAL_DESIGN_GEOMETRIC_PRESENTATION_REPRESENTATION('',(
    #1525),#1518);
#1525 = STYLED_ITEM('color',(#1526),#15);
#1526 = PRESENTATION_STYLE_ASSIGNMENT((#1527,#1533));
#1527 = SURFACE_STYLE_USAGE(.BOTH.,#1528);
#1528 = SURFACE_SIDE_STYLE('',(#1529));
#1529 = SURFACE_STYLE_FILL_AREA(#1530);
#1530 = FILL_AREA_STYLE('',(#1531));
#1531 = FILL_AREA_STYLE_COLOUR('',#1532);
#1532 = COLOUR_RGB('',0.678431390124,0.709803936702,0.741176476869);
#1533 = CURVE_STYLE('',#1534,POSITIVE_LENGTH_MEASURE(0.1),#1535);
#1534 = DRAUGHTING_PRE_DEFINED_CURVE_FONT('continuous');
#1535 = COLOUR_RGB('',9.803921802644E-02,9.803921802644E-02,
  9.803921802644E-02);
ENDSEC;
END-ISO-10303-21;
